<?xml version="1.0" encoding="UTF-8"?><svg id="Layer_3" xmlns="http://www.w3.org/2000/svg" xmlns:xlink="http://www.w3.org/1999/xlink" viewBox="0 0 1920 2585.96"><defs><style>.cls-1{fill:#0f1e2b;}.cls-2{filter:url(#outer-glow-1);}.cls-3{stroke-linecap:round;stroke-linejoin:round;}.cls-3,.cls-4{fill:none;stroke:#0033a1;stroke-width:1.25px;}.cls-5{fill:#332e44;}.cls-6{stroke:#f1dd39;}.cls-6,.cls-7,.cls-4{stroke-miterlimit:10;}.cls-6,.cls-8{fill:#f05a24;}.cls-9{fill:#c13fed;}.cls-10{fill:#750093;}.cls-7{stroke:#023a8c;stroke-width:2px;}.cls-7,.cls-11{fill:#000001;}.cls-12{fill:#fee866;}.cls-13{fill:#ffc600;}.cls-14{fill:#023a8c;}.cls-15{fill:#fff;}.cls-16,.cls-17{fill:#f9a72b;}.cls-18{fill:#592063;}.cls-19{fill:#f45197;}.cls-20{fill:#4d0666;}.cls-17{filter:url(#outer-glow-2);}.cls-21{fill:#310533;}.cls-22{fill:#38153f;}.cls-23{fill:#1c071e;}.cls-24{fill:#0033a1;}.cls-25{fill:#4a5d6c;}.cls-26{fill:#6d3676;}.cls-27{fill:#9c52a7;}</style><filter id="outer-glow-1" x="830.45" y="1736.78" width="764.88" height="263.28" filterUnits="userSpaceOnUse"><feOffset dx="0" dy="0"/><feGaussianBlur result="blur" stdDeviation="9"/><feFlood flood-color="#fff18d" flood-opacity=".8"/><feComposite in2="blur" operator="in"/><feComposite in="SourceGraphic"/></filter><filter id="outer-glow-2" x="931.25" y="1743.98" width="555.6" height="218.64" filterUnits="userSpaceOnUse"><feOffset dx="0" dy="0"/><feGaussianBlur result="blur-2" stdDeviation="9"/><feFlood flood-color="#fff18d" flood-opacity=".8"/><feComposite in2="blur-2" operator="in"/><feComposite in="SourceGraphic"/></filter></defs><path class="cls-15" d="M1178.04,1867.28c7.14,1.22,24.38,5.15,24.34,16.75-.04,11.6-.13,37.19-.13,37.19,0,0,2.71,22.65-96.8,24.95-156.23,3.61-246.02-17.25-246.02-17.25l-35.96-96.84,354.56,35.19Z"/><path d="M859.04,1930.62l-.91-.21-37.25-100.33,357.34,35.46.12.02c9.65,1.65,25.84,6.23,25.79,18.48l-.15,36.98c.03.31.27,3.11-2.87,6.73-7.25,8.36-29.72,18.65-95.62,20.17-12.29.29-24.17.42-35.65.42-132.89,0-209.98-17.52-210.81-17.71ZM826.08,1834.1l34.65,93.33c9.86,2.14,98.65,20.34,244.68,17.01,67.08-1.55,86.89-12.32,92.73-18.6,2.43-2.62,2.37-4.44,2.36-4.62l.14-37.19c.04-10.01-15.9-13.83-22.83-15.02l-351.72-34.91Z"/><path class="cls-15" d="M603.34,1899.44c-7.14.57-22.63,5.57-22.68,17.77-.04,12.2-3.7,36.59.45,40.17,4.15,3.59,38.82,18.94,57.74,24.71,27.64,8.43,95.04,20.17,149.8,18.29,54.76-1.89,131-12.47,131-28.55,0-19.29-.73-30.13-.73-36.73s-9.17-15.52-26.43-16.77"/><path d="M776.44,2002.34c4.15,0,8.24-.07,12.28-.21,34.42-1.19,132.68-9.3,132.68-30.29,0-12.2-.29-21.06-.51-27.53-.12-3.78-.22-6.78-.22-9.2,0-7.92-10.72-17.25-28.04-18.51l-.26,3.48c16.19,1.17,24.81,9.48,24.81,15.03,0,2.45.1,5.49.23,9.32.21,6.45.5,15.28.5,27.42,0,13.17-68.15,24.7-129.31,26.81-54.93,1.86-121.49-9.75-149.23-18.22-18.71-5.71-53.31-21.08-57.11-24.36-2.23-1.93-1.19-16.51-.57-25.22.37-5.08.71-9.88.72-13.63.03-10.85,14.21-15.49,21.08-16.04l-.28-3.47c-7.9.63-24.24,6.23-24.28,19.51-.01,3.63-.35,8.37-.71,13.39-1.11,15.58-1.55,25.24,1.77,28.11,4.59,3.96,39.67,19.35,58.37,25.06,25.92,7.9,85.5,18.57,138.09,18.57Z"/><path class="cls-24" d="M895.91,1881.45c19.93,2.15,118.08,14.11,178.19,11.95,60.11-2.17,109.93-5.94,110.46-19.84.05-1.42,10.47-108.03-86.01-157.04-97.99-49.78-126.64-39.22-126.64-39.22l-133.15,33.91s-41.53,26.32-46.6,158.14c0,7.97,103.73,12.1,103.73,12.1Z"/><path d="M903.11,1884.01l-7.34-.82c-48.07-1.92-105.35-5.87-105.34-13.91,5.05-131.23,45.68-158.45,47.4-159.55l133.48-34.07c1.2-.44,30.49-10.26,128.03,39.3,92.67,47.08,87.83,147.21,86.96,158.66-.57,14.63-41.55,18.97-112.14,21.51-5.05.18-10.34.27-15.83.27-54.02,0-126.34-8.14-155.22-11.4ZM972.35,1678.99l-132.84,33.83c-3.12,2.27-40.75,32.28-45.58,156.29,4.09,4.26,54.81,8.72,102.05,10.61l7.53.83c28.72,3.23,116.09,13.09,170.54,11.11,35.13-1.27,108.23-3.9,108.81-18.48.84-11.03,5.58-109.05-85.08-155.11-68.66-34.88-103.16-39.9-117.31-39.9-5.56,0-7.98.77-8.1.81Z"/><path class="cls-15" d="M1010.19,1676.92l1.45,14.73c-55.77,0-180.35,69.05-180.35,33.08,0-35.97,0-47.8,0-47.8h178.91Z"/><path d="M833.88,1734.01c-2.88-2.05-4.34-5.18-4.34-9.28v-49.55h182.23s1.79,18.22,1.79,18.22h-1.92c-23.24,0-58.32,12.05-92.24,23.7-30.32,10.41-57.47,19.74-73.81,19.74-4.98,0-8.95-.87-11.71-2.83ZM1008.62,1678.66h-175.59s0,46.06,0,46.06c0,2.95.94,5.06,2.88,6.45,10.33,7.38,46.95-5.2,82.36-17.37,33.29-11.44,67.68-23.25,91.46-23.87l-1.11-11.26Z"/><rect class="cls-15" x="645.53" y="1625.33" width="163.06" height="129.55"/><path d="M643.79,1623.59h166.54v133.04h-166.54v-133.04ZM806.84,1627.08h-159.56s0,126.06,0,126.06h159.56s0-126.06,0-126.06Z"/><path class="cls-24" d="M636.94,1726.17c3.61-7.96,8.2-10.37,8.2-10.37,0,26.2,25.35,31.87,58.67,21.01,57.06-18.61,99.23-13.04,117.34,5.79,0,0,79.82,66.25,82.11,179.6.06,2.98-1.43,5.83-3.95,7.42-9.02,5.68-36.31,17.47-110.75,18.1-98.79.84-182.16-21.51-197.38-39.26.18-51.39,31.37-150.58,45.76-182.29Z"/><path class="cls-24" d="M589.85,1909.6l-.42-.49v-.65c.2-53.57,32.68-153.83,45.92-183.01h0c3.82-8.41,8.76-11.09,8.97-11.2l2.56-1.34v2.88c0,8.66,2.88,15.14,8.56,19.26,9.61,6.97,26.6,7.01,47.82.09,53.13-17.33,98.78-14.94,118.99,6.11.8.67,80.45,68.06,82.74,180.91.07,3.61-1.76,7.04-4.77,8.93-10.47,6.59-38.91,17.75-111.67,18.37-1.81.01-3.6.02-5.4.02-94.05,0-176.9-20.74-193.31-39.89ZM704.35,1738.45c-22.31,7.27-40.41,7.07-50.95-.57-5.82-4.22-9.13-10.46-9.85-18.56-1.45,1.48-3.35,3.88-5.02,7.57-13.09,28.86-45.15,127.68-45.6,180.92,15.45,16.66,96.46,39.08,195.61,38.17,74.58-.63,101.66-12.68,109.84-17.83,1.99-1.25,3.19-3.51,3.14-5.91-2.25-111.21-80.69-177.64-81.62-178.43-10.68-11.11-28.86-16.73-51.7-16.73-18.69,0-40.5,3.77-63.85,11.38Z"/><path class="cls-15" d="M1102.72,1711.99c-8-9.55-24.89-28.65-62.1-25.22-37.21,3.44-67.41,33.47-73.64,41.1-6.08,7.44-7.3,22.58,4.37,26.8,24.96,9.02,36.73-37.06,103.4-40.99"/><path d="M977.7,1757.57c8.65,0,16.27-5.93,25.41-13.04,14.61-11.36,34.61-26.93,71.73-29.12l-.2-3.48c-38.2,2.25-58.7,18.2-73.67,29.85-11.49,8.94-19.08,14.85-29.04,11.25-4.63-1.68-6.47-5.16-7.19-7.78-1.42-5.15.09-11.99,3.59-16.28,7.74-9.48,37.67-37.25,72.46-40.47,37.14-3.46,53.58,16.22,60.6,24.6l2.67-2.24c-7.38-8.81-24.61-29.46-63.6-25.84-42.86,3.96-74.52,41.35-74.83,41.73-4.23,5.17-5.98,13.15-4.25,19.41,1.35,4.9,4.59,8.4,9.37,10.13,2.41.87,4.71,1.27,6.95,1.27Z"/><path class="cls-15" d="M863.67,1786.73c-1.76-18.39-34.74-48.42-99.21-44.5-64.47,3.91-88.95,34.55-91.48,44.2-2.53,9.65,2.26,22.83,21.44,12.4,19.18-10.43,169.26-12.1,169.26-12.1Z"/><path d="M675.17,1802.13c-4.65-3.64-5.29-10.73-3.88-16.14,3.32-12.69,31.37-41.75,93.06-45.5,67.89-4.08,99.33,27.98,101.05,46.08l.18,1.89-1.89.02c-1.5.01-149.86,1.78-168.44,11.89-5.48,2.98-9.72,4.03-13,4.03s-5.52-1.03-7.08-2.26ZM764.56,1743.97c-65.71,3.99-87.92,35.35-89.9,42.9-1.13,4.31-.74,9.86,2.65,12.52,3.33,2.62,8.95,1.89,16.26-2.09,18.34-9.98,149.38-12.04,168.06-12.29-3.62-16.73-34.72-44.82-97.08-41.04Z"/><path class="cls-15" d="M877.27,1812.01c-3.96,2.85-42.63-26-85.58-20.72-42.95,5.29-65.98,22.45-79.15,27.54-13.17,5.09-27.83,1.7-18.85-16.59,8.98-18.29,37.27-35.51,88.67-38.51,49.94-2.92,76.47,10.52,89.67,25.29,8.25,9.23,11.01,18.85,5.25,22.99Z"/><path d="M691.68,1819c-2.43-2.65-4.32-7.84.43-17.53,10.82-22.06,44.52-36.82,90.13-39.48,53.32-3.11,78.99,12.35,91.07,25.87,6.1,6.82,9.26,13.77,8.68,19.08-.3,2.71-1.58,4.96-3.71,6.49h0c-2.02,1.45-5.51-.17-13.95-4.09-15-6.97-42.92-19.96-72.44-16.31-32.31,3.98-53.31,14.77-67.21,21.92-4.44,2.28-8.27,4.25-11.52,5.51-3.94,1.52-7.76,2.27-11.16,2.27-4.39,0-8.06-1.25-10.32-3.73ZM865.81,1806.18c4.55,2.11,9.24,4.3,10.6,4.3h0c1.24-.95,1.93-2.23,2.11-3.91.47-4.26-2.45-10.38-7.81-16.37-11.58-12.95-36.25-27.74-88.27-24.71-44.35,2.59-76.94,16.62-87.21,37.53-3.08,6.27-3.42,10.99-.99,13.64,2.94,3.2,10.2,3.44,17.65.56,3.08-1.19,6.84-3.12,11.19-5.36,14.12-7.26,35.45-18.23,68.38-22.28,3.67-.45,7.31-.66,10.9-.66,26.27,0,49.96,11.01,63.43,17.27ZM876.25,1810.6h0s0,0,0,0t0,0Z"/><path class="cls-15" d="M1143.05,1749.62s3.75-25.25-26.65-35.8c-30.31-10.52-55.03-3.68-68.44,1.84-22.95,9.44-60.56,44.12-36.5,56.11,19.32,9.63,44.99-15.31,51.25-20.35,6.27-5.04,26.54-16.57,48.56-15.6,22.02.97,31.79,13.8,31.79,13.8Z"/><path d="M1010.67,1773.33c-7.45-3.71-8.84-9.24-8.7-13.22.58-16.14,27.47-38.72,45.32-46.06,15.68-6.45,40.49-12,69.68-1.87,31.41,10.91,27.84,37.44,27.81,37.7l-.6,4.05-2.5-3.25c-.09-.12-9.62-12.2-30.49-13.12-21.97-1.07-42.09,10.96-47.39,15.21-.63.5-1.45,1.2-2.43,2.05-7.24,6.21-24.33,20.85-40.39,20.85-3.52,0-6.99-.7-10.3-2.35ZM1111.34,1734.08c15.89.7,25.61,7.32,30.11,11.37-.34-7.2-3.77-22.4-25.62-29.99-28.16-9.77-52.1-4.42-67.21,1.8-16.62,6.83-42.64,28.36-43.16,42.96-.16,4.36,2.05,7.62,6.77,9.97,16.31,8.17,38.51-10.87,46.87-18.02,1.02-.88,1.87-1.6,2.51-2.12,5.73-4.6,24.9-16.04,46.96-16.04.92,0,1.84.02,2.77.06Z"/><path class="cls-15" d="M1347.73,759.3c-118.3,35.93-271.88,226.47-338.56,350.91,6.53.8,13.04,1.69,19.55,2.61,5.78-9.41,17.65-19.83,28.75-21.74,45.21-7.77,90.31-7.91,136.01-7.9,19.28,0,35.02,11.1,43.07,26.9,47.55-1.12,94.95,3.79,142.49,3.86,7.2.01,13.9,1.57,19.9,4.33,25.38-47.05,42.86-88.53,54.63-117.27,48.91-119.49,8.98-276.58-105.83-241.71Z"/><path class="cls-15" d="M1288.1,1238.84c-28.98-3.02-57.72-7.84-86.55-11.91-27.89-3.53-55.92-5.47-83.94-7.49-18.47,2.79-36.92,5.73-55.39,8.56-6.89,1.06-13.79,2.11-20.69,3.14l72.69,190.95c87.57-49.95,154.51-115.4,205.5-181.28-10.48-.2-21-.85-31.62-1.96Z"/><path d="M1316.82,1240.73c-84.79,110.55-165.31,157.68-201.52,178.36l-71.67-188.28c-1.39.21-2.78.42-4.17.63l73.71,193.62,2.09-1.19c88.19-50.31,155.71-116.79,206.86-183.04-1.76-.02-3.53-.05-5.29-.1Z"/><path d="M1439.52,779.52c-23.46-25.76-55.42-33.43-92.39-22.2-115.54,35.09-271.36,223.72-340.17,352.62,1.47.17,2.93.34,4.39.53,68.8-128.19,222.85-314.54,336.97-349.2,6.78-2.06,13.39-3.46,19.79-4.2,26.96-3.12,50.33,5.43,68.35,25.23,41.06,45.1,47.59,138.78,15.19,217.92-17.67,43.16-36.23,82.01-55.22,116.99,1.51.59,2.97,1.25,4.39,1.99,27.04-49.97,44.41-92.39,54.65-117.41,32.96-80.52,26.1-176.07-15.95-222.26Z"/><path class="cls-15" d="M1473.43,909.98c.8-15.16,11.88-29.34,28.42-43.32,16.54-13.98,44.32-43.97,28.04-65.55-15.92-21.1-35-13.47-51.9-2.97-16.91,10.5-7.16-3.4,1.39-16.1,10.82-16.07,27.09-40.38,4.64-57.67-22.29-17.17-39.89-3.01-52.69,14.93-12.8,17.94-11.86,11.21-8.9-3.82,2.96-15.02,10.44-44-14.21-51.73-24.65-7.74-44.06,8.42-77.38,74.94"/><path d="M1473.42,911.88s-.06,0-.1,0c-1.05-.05-2.55-1.57-2.42-2.61,1.58-12.44,10.62-27.92,29.71-44.06,7.67-6.49,45.06-40,27.75-62.95-14.98-19.84-32.58-12.93-49.38-2.5-6.54,4.06-9.62,4.89-11.36,3.09-2.46-2.56.58-7.65,9.25-20.49l.93-1.38c10.42-15.47,26.16-38.85,5.05-55.1-7.51-5.78-14.94-8.19-22.08-7.11-9.38,1.39-18.5,8.47-27.9,21.64-7.75,10.85-10.16,12.29-12.35,11.34-2.74-1.18-2.2-5.26.04-16.63l.55-2.72c3.24-15.95,8.14-40.05-13.46-46.83-24.6-7.74-43.55,10.95-75.12,73.98-.47.94-1.62,1.32-2.55.85-.94-.47-1.32-1.61-.85-2.55,32.66-65.2,52.75-84.33,79.65-75.91,24.87,7.81,19.13,36.05,16.05,51.22l-.54,2.7c-.64,3.26-1.74,8.8-1.84,11.51,1.15-1.08,3.32-3.56,7.32-9.16,10.03-14.06,19.99-21.64,30.44-23.19,8.2-1.21,16.6,1.43,24.96,7.87,23.94,18.43,6.31,44.6-4.22,60.24l-.93,1.38c-3.39,5.02-8.31,12.31-9.26,15.28.95-.3,2.79-1.11,6.22-3.23,17.44-10.84,37.56-18.92,54.42,3.44,18.89,25.03-16.91,58.49-28.32,68.14-18.23,15.41-25.07,24.3-28.5,41.82-.19,1-.14,1.95-1.15,1.95Z"/><path class="cls-15" d="M1282.09,800.46c.35-14.48,15.45-51.01,38.72-67.42,31.1-21.94,66.33,1.9,52.34,30.71-13.99,28.81-15.15,39.58-13.4,45.81,1.75,6.22,5.69,31.42-10.09,43.12"/><path d="M1349.65,854.57c-.58,0-1.15-.27-1.52-.77-.63-.84-.45-2.03.39-2.66,16.85-12.5,9.47-40.8,9.39-41.08-1.7-6.04-1.42-16.37,13.52-47.15,5.4-11.11,3.39-22.18-5.35-29.61-9.57-8.13-26.94-10.9-44.19,1.28-22.92,16.17-37.58,51.87-37.91,65.92-.03,1.05-.74,1.85-1.95,1.86-1.05-.03-1.88-.9-1.86-1.95.36-14.72,15.63-52.08,39.53-68.93,18.91-13.34,38.16-10.14,48.84-1.07,10,8.49,12.42,21.59,6.31,34.16-14.47,29.81-14.7,39.42-13.28,44.46,2.4,8.55,5.14,33.34-10.79,45.16-.34.26-.74.38-1.14.38Z"/><path d="M917.07,657.84c1.98,3.33,13.41,2.19,16.2,1.58,5.84-1.28,10.89-4.2,15.42-7.31,3.36-2.31,10.83-6.3,12.57-9.65,1.92-3.68-2.89-9.83-4.51-13.56,7.92-2.36,12.62-7.42,20.39-10.03,5.71-1.91,12.63-2.09,17.72-4.78,3.95-2.09,10.6-2.63,14.07-5.26,3.84-2.92,5.94-6.2,10.28-8.77,4.23-2.5,8.6-4.84,13.1-7,9.28-4.44,19.18-8.14,29.7-10.51,20.55-4.62,43.82-3.46,63.47,8.83,33.62,21.04,27.34,51.85,3.28,70.68-33.99,26.6-70.39,25.56-114.7,26.47-17.34.36-35.11.52-52.88-1.79-17.34-2.26-38.46-19.37-44.12-28.89Z"/><path class="cls-4" d="M912.37,657.62c2.2,3.71,15.02,2.08,18.02,1.41,6.23-1.38,12.48-4.34,17.19-7.86-6.05-5.69-13.88-20.37-10.97-27.17,15.1,5.68,32.69-1.83,45.67-6.21,27.54-9.29,48.16-27.34,76.75-34.54,21.27-5.36,45.78-4.82,66.45,8.12,33.62,21.04,27.34,51.85,3.28,70.68-33.99,26.6-70.39,25.56-114.7,26.47-17.34.36-35.11.52-52.88-1.79-17.34-2.26-43.17-19.59-48.82-29.12Z"/><path d="M1008.43,659.08s-130.04-109.88-149.36-278.53c-.45-5.74-2.32-13.8,1.53-18.6,2.02-2.51,5.28-3.1,8.19-4.75-1.58-3.3-6.61-3.18-8.28-6.04,4.31-3.47,19.21-3.28,10.97-9.72-2.36-1.84-6.52-2.9-7.74-5.68-2.25-5.11,2-10.75,4.42-14.69,3.79-6.17,6.72-12.41,11.59-17.99,0,0,76.69-27.53,148.94-23.61,0,0,2.36-6.2-25.79-12.25,0,0-135.85.33-173.27,9.98,0,0-30.3,11.53-55.06,61.32-22.16,45.7-39.52,91.31-52.68,141.16-4.11,15.57-11.13,30.59-19.85,44.49-4.41,7.02-34.58,50.64-45.94,46.63,0,0,301.62,110.06,352.34,88.27Z"/><path class="cls-24" d="M903.17,522.77s-61.65-24.26-179.44-37.4l-25.01,47s179.5,21.15,265.26,77.15l16.42,17.84-39.52-45.11-37.72-59.47Z"/><path class="cls-3" d="M1002.24,656.5c-46.78-50.73-134.22-162.89-143.16-275.95-.45-5.74-2.32-13.8,1.53-18.6,2.02-2.51,5.28-3.1,8.19-4.75-1.58-3.3-6.61-3.18-8.28-6.04,4.31-3.47,19.21-3.28,10.97-9.72-2.36-1.84-6.52-2.9-7.74-5.68-2.25-5.11,2-10.75,4.42-14.69,3.79-6.17,6.72-12.41,11.59-17.99,0,0,76.69-27.53,148.94-23.61,0,0,.03-11.54-25.79-12.25,0,0-135.85.33-173.27,9.98,0,0-30.3,11.53-55.06,61.32-22.16,45.7-39.52,91.31-52.68,141.16-4.11,15.57-11.13,30.59-19.85,44.49-4.41,7.02-34.58,50.64-45.94,46.63,0,0,210.89,85.73,317.51,106.26"/><path d="M856.41,600.49c-35.59-14.9-73.01-26.82-110.42-36.62-31.73-8.31-64.2-14.96-96.92-17.68-38.23-3.17-74.6,1.93-110.48,12.43-29.66,8.68-73.68,28.98-61,64.16,6.09,16.82,27.69,27.49,44.73,34.81,36.33,15.6,71.93,23.05,111.45,22.43,20.96-.33,42.06.07,62.99,0,54.57-.17,108.89-.34,162.95-.5,31.34-.1,62.67-.19,94.01-.29,12.37-.04,26.57,1.93,38.73-.31,2.92-.54,11.77-3.84,12.01-7.53.25-3.87-10.7-5.7-14.08-7.31-14.31-6.85-28.41-14.13-42.55-21.31-29.91-15.19-59.96-30.48-91.42-42.28Z"/><path class="cls-3" d="M856.41,600.49c-35.59-14.9-73.01-26.82-110.42-36.62-31.73-8.31-64.2-14.96-96.92-17.68-38.23-3.17-74.6,1.93-110.48,12.43-29.66,8.68-73.68,28.98-61,64.16,6.09,16.82,27.69,27.49,44.73,34.81,36.33,15.6,71.93,23.05,111.45,22.43,20.96-.33,42.06.07,62.99,0,54.57-.17,108.89-.34,162.95-.5"/><path class="cls-24" d="M918.56,662.07c-62.28-24.98-113.48-40.86-181.22-48.55-42.72-4.85-86.58-9.24-128.07,1.04-34.71,8.6-23.81,28,2.24,42.17,31.14,16.95,74.43,22.78,109.3,19.69"/><path class="cls-15" d="M1170.57,1223.57c-17.63-1.63-35.29-2.87-52.95-4.15-18.47,2.79-36.92,5.73-55.39,8.56-29.13,4.46-58.34,8.92-87.67,11.82-5.19.51-10.43.92-15.65.62-8.06-.47-16.62-1.3-24.33-3.93-20.21-6.89-35.69-20.1-47.9-37.34-14.86-20.99-11.73-50.7,6.58-68.6,12.4-12.13,29.93-17.63,46.71-20.01,17.49-2.48,34.29-3.6,51.9-2.14,12.33,1.02,24.6,2.69,36.85,4.41,5.78-9.41,17.64-19.82,28.75-21.73,24.51-4.22,48.99-6.18,73.56-7.09-57.82-252.2-49.34-455.89-322.9-460.63-361.15-6.26-232.91,384.99-312.71,672.5-91.87,331.01,70.04,424.81,370.5,404.33,300.24-23.38,451.23-113.25,321.74-431.43-6.15-15.11-11.82-30.18-17.08-45.18Z"/><path d="M1172.38,1223.75c-1.2-.11-2.4-.23-3.6-.34,5.34,15.27,11.09,30.6,17.34,45.96,54.64,134.26,60.98,232.25,19.39,299.59-46.27,74.92-151.04,114.89-339.72,129.58-176.13,12-289.97-16.78-348.04-88-54.21-66.49-61-169.28-20.77-314.26,23.56-84.88,29-178.31,34.25-268.67,6.26-107.7,12.19-209.43,48.26-283.83,32.26-66.52,85.26-103.97,164.52-115.22,19.7-2.8,41.04-3.97,64.07-3.58,231.08,4.01,259.38,148.84,298.54,349.29,6.83,34.98,14.03,71.78,22.74,109.77,1.11-.04,2.23-.09,3.34-.13-8.76-38.16-15.99-75.13-22.86-110.27-19.54-100.05-36.42-186.45-77.72-249-45.14-68.37-116.31-101.08-223.98-102.94-117.11-2.03-190.7,36.31-231.6,120.64-36.37,74.99-42.3,177.04-48.59,285.08-5.25,90.19-10.67,183.44-34.14,267.98-40.54,146.08-33.55,249.84,21.38,317.21,58.79,72.1,173.54,101.28,350.83,89.2,30.3-2.36,58.43-5.37,84.54-9.08,137.48-19.51,218.34-58.27,257.74-122.05,42.18-68.29,35.92-167.26-19.15-302.56-6.04-14.83-11.6-29.63-16.78-44.38Z"/><path class="cls-13" d="M1020.96,849.12c-4.46,74.42-73.81,111.19-155.44,130.37-115.72,27.18-266.76-50.08-274.98-136.81-8.48-89.42,67.08-184,217.98-181.74,150.9,2.26,217.58,102.51,212.44,188.19Z"/><path d="M848.45,984.34c-64,9.09-140.85-10.17-196.79-50.34-37.44-26.89-59.72-59.26-62.75-91.17-4.07-42.91,10.58-84.82,41.25-118.04,40.04-43.36,103.4-66.62,178.38-65.49,89.85,1.35,141.21,36.66,168.47,66.04,31.64,34.1,48.26,79.26,45.58,123.88-3.89,64.88-55.14,108.01-156.7,131.86-5.69,1.33-11.52,2.42-17.45,3.27ZM759.52,665.54c-52.52,7.46-96.59,28.58-126.96,61.47-30.03,32.52-44.38,73.55-40.4,115.51,2.94,30.95,24.74,62.5,61.4,88.83,60.41,43.37,145.45,62.1,211.58,46.55,99.96-23.47,150.4-65.63,154.19-128.87l1.63.1-1.63-.1c2.62-43.74-13.68-88.01-44.72-121.46-26.83-28.92-77.42-63.66-166.12-64.99-16.98-.25-33.35.75-48.98,2.97Z"/><path d="M880.24,805.24s68.68,125.18-25.3,151.62c-93.98,26.45-138.79-111.54-139.61-156.46,0,0,29.53,43.54,97.27,39,41.54-2.78,67.64-34.16,67.64-34.16Z"/><path class="cls-15" d="M740.85,842.15c7.38.08,13.76-4.1,16.99-10.2.09-.11.15-.23.23-.34-14.61-5.73-25.28-13.47-32.29-19.82-2.32,3.12-3.78,6.91-3.82,11.09-.11,10.54,8.35,19.17,18.88,19.28Z"/><path d="M743.93,843.58c-1.01.14-2.05.21-3.09.2h0c-5.54-.06-10.72-2.27-14.59-6.22-3.87-3.95-5.97-9.18-5.92-14.71.04-4.29,1.48-8.46,4.15-12.05l1.07-1.44,1.33,1.21c6.27,5.67,16.87,13.66,31.79,19.51l1.96.77-1.23,1.71c-3.27,6.1-9,10.1-15.48,11.02ZM740.87,840.51c6.05.07,11.59-3.01,14.82-8.11-13.4-5.52-23.27-12.66-29.59-18.16-1.61,2.67-2.47,5.63-2.5,8.64-.05,4.66,1.72,9.06,4.98,12.39,3.26,3.33,7.63,5.19,12.28,5.24h0Z"/><path class="cls-15" d="M874.88,811.62c-.13-.17-.31-.27-.45-.43-6.06,5.69-16.71,14.24-31.02,20.5.17.39.26.8.48,1.18,3.02,6.41,9.45,10.9,17.01,10.98,10.54.11,19.17-8.35,19.28-18.88.05-5.18-1.98-9.88-5.29-13.35Z"/><path d="M864.01,845.29c-1.02.15-2.07.22-3.13.21-7.96-.08-15.04-4.65-18.47-11.91-.14-.22-.27-.57-.39-.92l-.62-1.48,1.36-.98c13.99-6.12,24.34-14.36,30.56-20.2l1.23-1.15,1.12,1.26c.14.11.29.24.45.43,3.73,3.94,5.75,9.07,5.7,14.46-.11,10.35-7.84,18.88-17.79,20.29ZM845.54,832.54c3.03,5.97,8.85,9.62,15.37,9.69,9.63.09,17.53-7.64,17.62-17.26.04-4.23-1.43-8.26-4.18-11.48-6.26,5.7-15.99,13.21-28.82,19.05Z"/><path class="cls-15" d="M798.25,840.45c.01-.29-.05-.54-.05-.82-14.12-.47-26.3-3.07-36.64-6.73-.21.58-.47,1.12-.61,1.74-.46,1.61-.79,3.27-.81,5.02-.11,10.54,8.35,19.17,18.88,19.28,10.4.11,18.91-8.14,19.23-18.49Z"/><path d="M782.08,860.37c-1,.14-2.03.21-3.07.2-5.54-.06-10.71-2.26-14.59-6.22-3.87-3.95-5.97-9.17-5.92-14.71.02-1.71.29-3.44.87-5.46.1-.44.28-.91.47-1.39l.73-1.99,1.53.54c11.23,3.98,23.39,6.21,36.15,6.63l1.58.06v1.58c.04.42.06.64.05.88-.32,10.13-8.05,18.48-17.81,19.87ZM762.55,834.97s0,.02,0,.03c-.52,1.82-.75,3.27-.77,4.68-.05,4.66,1.72,9.06,4.98,12.38,3.26,3.33,7.63,5.19,12.28,5.24,9.16.1,16.84-7.06,17.54-16.11-11.95-.54-23.38-2.63-34.03-6.23Z"/><path class="cls-15" d="M839.46,841.15c.02-2.21-.41-4.3-1.08-6.28-.11-.34-.32-.64-.47-.97-7.61,2.8-16.05,4.89-25.32,5.51-3.9.26-7.66.35-11.31.31.03.25,0,.47.05.73,0,.11-.03.21-.04.32-.11,10.54,8.35,19.17,18.88,19.28,10.54.11,19.17-8.35,19.27-18.88Z"/><path d="M823.34,861.46c-1.04.15-2.1.22-3.17.21-5.54-.06-10.71-2.26-14.59-6.22-3.87-3.95-5.97-9.17-5.92-14.71l1.61-.14h0s-1.57-.29-1.57-.29c-.02.14-.03-.04-.04-.26l-.23-1.86,1.87-.13c3.87.04,7.53-.06,11.18-.31,8.36-.54,16.49-2.32,24.86-5.41l1.44-.53.62,1.39c.29.55.44.84.53,1.15.8,2.34,1.18,4.58,1.15,6.79h0c-.06,5.53-2.27,10.72-6.22,14.59-3.19,3.12-7.2,5.09-11.54,5.71ZM802.94,841.35c.08,4.4,1.84,8.61,4.98,11.81,3.26,3.33,7.62,5.19,12.28,5.24,4.68.04,9.06-1.72,12.39-4.98,3.33-3.26,5.19-7.62,5.24-12.28h0c.02-1.68-.25-3.38-.81-5.18-8.08,2.83-16.25,4.53-24.31,5.08-3.21.21-6.42.32-9.77.32Z"/><path class="cls-19" d="M897.85,849.14c-14.96,4.83-27.79,14.99-35.23,29.75-3.27,6.49-5.19,13.36-5.98,20.32-12.63,5.78-23.3,15.43-29.92,28.55-5.02,9.96-7.11,20.74-6.68,31.46,10.78,1.7,22.38,1.16,34.89-2.36,57.31-16.13,54.12-68.94,42.91-107.73Z"/><path d="M843.25,961.02c-21.5,3.05-41.68-2.31-60.13-16.02-45.09-33.52-68.82-110.74-69.43-144.56l-.1-5.48,3.09,4.54c.29.42,29.87,42.71,95.81,38.29,40.37-2.7,66.23-33.28,66.49-33.58l1.54-1.84,1.15,2.1c1.57,2.87,38.3,70.75,18.76,117.31-7.58,18.06-22.73,30.4-45.05,36.68-4.09,1.15-8.13,2.01-12.13,2.58ZM717.21,805.4c2.63,35.34,25.74,105.65,67.87,136.96,21.02,15.63,44.39,19.97,69.42,12.93,21.31-6,35.74-17.7,42.92-34.8,17.09-40.73-11.53-100.64-17.54-112.42-6.39,6.78-31.33,30.55-67.16,32.97-35.45,2.37-60.37-8.52-75.04-18.07-10.15-6.61-16.86-13.4-20.47-17.57Z"/><circle class="cls-15" cx="761.27" cy="758.03" r="36.51" transform="translate(-303.76 617.09) rotate(-37.34)"/><path d="M766.65,795.8c-1.21.17-2.43.29-3.67.34-21.01.94-38.87-15.39-39.82-36.4h0c-.94-21.01,15.44-38.93,36.4-39.82,10.18-.46,19.93,3.08,27.45,9.95,7.52,6.87,11.91,16.27,12.37,26.44.89,19.77-13.52,36.75-32.72,39.48ZM726.43,759.59h0c.86,19.21,17.19,34.14,36.4,33.28,19.28-.88,34.14-17.2,33.28-36.4-.42-9.31-4.43-17.89-11.31-24.18-6.87-6.28-15.79-9.51-25.09-9.1-19.27.85-34.14,17.19-33.28,36.4Z"/><circle class="cls-15" cx="831.94" cy="754.47" r="36.51" transform="translate(-288.36 675.16) rotate(-38.15)"/><path d="M837.32,792.24c-1.21.17-2.43.29-3.67.34-10.18.46-19.93-3.08-27.45-9.95-7.52-6.88-11.91-16.27-12.37-26.44-.46-10.18,3.08-19.93,9.95-27.45,6.87-7.53,16.29-11.9,26.44-12.37,21.01-.94,38.87,15.39,39.81,36.39.89,19.77-13.52,36.75-32.72,39.48ZM797.1,756.03c.42,9.31,4.43,17.89,11.31,24.18,6.88,6.29,15.79,9.52,25.09,9.1,19.23-.89,34.14-17.2,33.28-36.4-.42-9.31-4.43-17.89-11.31-24.18-6.88-6.28-15.79-9.51-25.09-9.1-19.28.89-34.14,17.19-33.28,36.4h0Z"/><circle cx="767.46" cy="743.43" r="21.24" transform="translate(-293.63 617.85) rotate(-37.34)"/><circle cx="835.56" cy="739.99" r="21.24" transform="translate(-278.64 674.3) rotate(-38.15)"/><circle class="cls-15" cx="761.23" cy="733" r="9.83" transform="translate(-292.13 817.81) rotate(-48.52)"/><circle class="cls-15" cx="829.88" cy="729.53" r="9.83" transform="translate(-266.35 868.07) rotate(-48.52)"/><path class="cls-13" d="M889.13,756.87c-6.1,14.01-9.02,30.45-7.72,47.79,2.18,29.01,15.69,53.77,34.55,67.88"/><path d="M916.19,874.16c-.41.06-.85-.04-1.21-.31-19.91-14.89-33.07-40.71-35.2-69.07-1.28-17.03,1.44-33.83,7.85-48.57.36-.83,1.32-1.21,2.15-.84.82.36,1.2,1.32.84,2.15-6.2,14.25-8.83,30.51-7.59,47.02,2.06,27.43,14.74,52.36,33.9,66.69.72.54.87,1.57.33,2.29-.27.36-.66.58-1.08.64Z"/><path class="cls-13" d="M707.76,755.34c5.85,14.16,8.46,30.72,6.8,48.1-2.67,27.89-15.77,51.63-33.84,65.59"/><path d="M680.95,870.65c-.56.08-1.15-.14-1.52-.62-.56-.72-.42-1.74.29-2.29,18.55-14.34,30.66-37.84,33.21-64.46,1.58-16.53-.73-32.89-6.68-47.31-.35-.83.05-1.79.89-2.14.86-.35,1.79.06,2.14.89,6.16,14.91,8.55,31.81,6.91,48.88-2.64,27.51-15.2,51.84-34.46,66.73-.23.18-.5.29-.77.33Z"/><path class="cls-15" d="M640.12,1263.84c-19.23,58.82-69.94,147.93-187.71,270.3-203.8,211.75-267.69,157.62-312.07,139.29-44.38-18.33-46.32-203.72,85.95-363,132.27-159.27,305.09-188.31,332.46-186.53"/><path d="M171.24,1688.71c46.47,16.33,120.25,15.37,282.54-153.25,124.59-129.46,171.08-218.84,188.15-271.03.32-.99-.21-2.05-1.18-2.39-.01,0-.03,0-.04,0-1-.33-2.07.22-2.41,1.22-16.94,51.81-63.18,140.63-187.27,269.57-187.53,194.86-254.91,163.96-299.5,143.5-3.63-1.67-7.1-3.26-10.46-4.65-9.23-3.82-16.8-15.92-21.3-34.09-14.46-58.33,2.08-198.4,107.99-325.94,133.26-160.45,304.84-187.53,330.87-185.85,1.05.07,1.96-.73,2.02-1.77.07-1.05-.72-1.98-1.77-2.02-26.33-1.71-199.78,25.54-334.05,187.22-58.52,70.47-86.17,140.33-99.05,186.53-14.95,53.59-18.58,106.96-9.71,142.76,4.87,19.65,13.01,32.34,23.55,36.69,3.32,1.37,6.75,2.94,10.33,4.59,6.52,2.99,13.53,6.21,21.3,8.94Z"/><path class="cls-15" d="M120.73,1672.2c-10.52,12.26-36.96,45.09-55.93,25.03-18.96-20.06,2.12-59.99,17.35-81.56,15.23-21.57,33.78-54.13,35.65-75.7"/><path d="M72.13,1704.41c2.18.77,4.47,1.12,6.85,1.06,16.24-.42,32.89-19.94,41.83-30.43l1.37-1.6c.69-.8.59-2.01-.2-2.69-.81-.7-2.01-.6-2.69.2l-1.37,1.61c-7.95,9.32-24.49,28.72-39.03,29.1-4.76.11-8.92-1.75-12.7-5.74-20.9-22.11,10.93-69.81,17.52-79.15,16.18-22.92,34.12-55.08,35.99-76.64.09-1.04-.67-1.98-1.74-2.07-1.05-.09-1.97.69-2.07,1.74-1.8,20.82-20.15,53.29-35.31,74.77-9.68,13.72-39.55,60.31-17.18,83.97,2.66,2.81,5.57,4.77,8.72,5.88Z"/><path class="cls-15" d="M173.56,1695.09c-16.59,31.9-30.69,54.55-53.77,50.52-23.09-4.04-31.84-24.51-20.11-63.88,11.73-39.36,20.44-66.48,20.44-66.48"/><path d="M113.02,1745.84c2.01.7,4.15,1.26,6.43,1.65,24.62,4.31,39.24-19.69,55.79-51.51.49-.93.13-2.09-.81-2.57-.92-.5-2.08-.13-2.57.81-15.83,30.42-29.69,53.38-51.76,49.52-8.7-1.52-15.1-5.48-19-11.79-6.46-10.43-6.33-27.14.38-49.67,11.59-38.89,20.34-66.17,20.42-66.44.32-1-.19-2.32-1.23-2.4-1-.32-2.08.23-2.4,1.23-.09.27-8.85,27.58-20.45,66.52-7.04,23.61-7.03,41.36.03,52.76,3.45,5.58,8.53,9.56,15.15,11.88Z"/><path class="cls-15" d="M330.74,1642.83c-14.81,9.86-10.45,21.96-9.52,39.31.93,17.35,5.46,62.43-29.94,67.9-28.08,4.34-34.07-33.44-34.71-40.88-1.31-15.21-15.19-18.96-22.36-5.67-7.17,13.29-29.49,65.34-60.3,55.1-30.81-10.24-22.15-49.7-3.07-98.35"/><path d="M172.65,1760.19c.22.08.44.15.65.22,29.29,9.72,50.81-32.82,60-50.99,1.01-1.99,1.87-3.7,2.59-5.02,2.81-5.21,6.87-7.82,10.88-6.99,4.23.9,7.36,5.57,7.91,11.92.09,1.07,2.41,26.34,16.81,37.65,5.68,4.46,12.44,6.13,20.09,4.94,35.36-5.47,32.8-48.67,31.71-67.12l-.16-2.76c-.16-3-.43-5.84-.67-8.53-1.2-12.97-1.99-21.54,9.34-29.1.87-.58,1.11-1.76.53-2.64-.57-.88-1.76-1.12-2.64-.53-13.23,8.8-12.26,19.31-11.03,32.62.25,2.65.51,5.44.66,8.38l.16,2.79c1.12,18.89,3.45,58.19-28.48,63.13-6.56,1.02-12.32-.39-17.15-4.17-10.49-8.24-14.64-26.49-15.37-34.98-.7-8.2-4.86-14.04-10.93-15.33-5.66-1.17-11.41,2.24-15.01,8.91-.72,1.34-1.6,3.08-2.63,5.11-8.75,17.29-29.24,57.78-55.4,49.09-7.66-2.59-12.78-6.9-15.82-13.38-8.88-18.97,2.77-54.03,13.92-82.46.38-.98-.1-2.09-1.08-2.47-.02-.01-.04-.02-.06-.03-.97-.34-2.03.15-2.41,1.1-12.14,30.95-23.28,65.31-13.83,85.47,3.36,7.19,9.22,12.28,17.41,15.16Z"/><image width="1624" height="610" transform="translate(755.6 485.37) rotate(11.48) scale(.09)" xlink:href="../../../../../../../../../Downloads/HI-CHEW Logo (R) (1).png"/><path class="cls-23" d="M1621.43,1671.5c44.22,15.37,93.16,28.57,132.39,54.77,46.64,31.16,100.41,73.32,105.51,134.01,3.67,43.62,6.59,105.81-3.65,148.01-10.21,42.08-42.28,70.56-70.74,99.93-8.65,8.92-14.55,14.56-26.28,19.61-3.92,1.69-10.37,2.11-12.43,3.34-2.83,1.68-3.15,10.01-5.13,13.51-15.8,27.87-105.66,54.9-136.87,63.93-32.23,9.32-58.92,14.73-91.86,20.01-10.71,1.72-20.88,8.94-32.65,11.81-13.1,3.19-55.07,9.97-66.66,7.32-3.84-.88-6.09-5.34-8.86-5.41-1.5-.04-15.72,6.45-19.72,7.55-66.59,18.41-127.51,7.98-194.04,2.48-21.44-1.77-49,1.09-69.57-5.01-3.71-1.1-8.78-4.84-10.8-5.04-3.44-.35-13.07,4.17-17.79,5.09-18.75,3.65-47.64,2.45-66.07-2.92-8.35-2.43-17.11-9.64-25.2-10.65-9.26-1.16-21.93,2.64-31.36,2.79-40.44.67-111.94-17.63-150.69-31.58-6.74-2.43-24.8-12.01-29.02-12.7-3.91-.64-9.08,1.53-15.04.82-17.03-2.03-50.37-21.2-63.51-32.58-2.59-2.24-8.4-10.27-9.29-10.79-2.49-1.46-6.19-.27-8.98-1.06-31.51-8.91-76.61-45-93.1-73.27-23.88-40.97-37.88-115.11-37.12-160.83.24-14.29.46-42.47,6.95-54.85,3.34-6.39,13.5-10.82,14.31-12.22,1.61-2.79,4-13.4,7.25-19.29,39.26-71.18,120.15-114.73,193.51-142.1,5.71-2.13,26.21-10.54,30.48-10.4,5.25.17,7.25,6.72,10.04,10.04-14.71,3.78-29.25,9.21-43.39,14.7-7.37,2.86-17.13,5.61-22.59,11.11-.47-.06-.97.08-1.43,0-.2-2.16-4.1-2.16-4.3,0-3.66.61-8.41,3.01-11.99,4.51-21.88,9.12-41.63,22.51-61.16,35.65-22.99,15.47-39.57,30.59-58.11,51.61-11.81,13.39-25.66,31.28-29.38,48.78-8.59,2.5-14.14,10.44-16.52,18.62-3.54,12.18-6.76,42.68-3.56,54.53-4.56,7.54-1.01,21.51.42,30.42,1.67,10.47,4.54,20.89,6.75,31.25,14.29,66.84,28.68,104.21,89.04,141.15,11.82,7.23,24.36,14.21,38.6,15.18,5.46,13.2,55.5,38.93,69.9,41.25,4.93.79,9.85-.1,14.72.34,8.42.76,11.09,4.21,18.27,6.83,44.4,16.19,120.86,37.1,167.45,34.75,6.17-.31,21.8-4.04,26.55-2.85,4.21,1.05,14.9,8.48,21.8,10.47,18.23,5.27,44.65,6.72,63.34,3.68,5.02-.82,17.31-5.6,19.56-5.54,2.21.06,9.98,4.33,14.06,5.31,22.1,5.27,45.88,2.87,68.4,4.75,40.65,3.4,77.63,9.28,119.12,7.23,29.15-1.45,62.69-6.4,89.57-17.28,6.46,9.29,27.68,5.2,37.82,4.12,12.69-1.35,30.75-3.79,42.81-7.39,7.91-2.36,15.4-7.99,22.64-9.63,6.82-1.55,16.39-.61,23.27-1.83,20.39-3.62,42.99-10.23,63.09-15.79,31.92-8.82,122.76-35.09,140.26-61.96,3.96-6.08,1.43-12.24,8.59-15.08,16.44-6.53,35.06-11.97,41.59-31.55,3.07-.17,4.96-1.71,7.21-3.56,61.45-50.51,65.45-108.5,61.62-183.6-.26-5.06-1.44-13.04-2.85-17.94,5.19-21.65-3.44-46.93-12.91-65.98-10.65-21.42-20.22-29.59-37.29-45.9-37.88-36.18-82.56-58.26-131.95-76.01-17.04-6.13-34.28-11.99-51.63-17.21,2.49-3.28,6.49-8.43,8.61-11.47Z"/><path class="cls-21" d="M825.42,1685.84c22.03,26.23,44.68,50.48,71.71,71.71-1.41,9.64-3.94,19.13-5.74,28.68-34.87,9.66-74.1,21.99-103.72,43.29-92.88,66.8,74.27,120.1,122.36,133.83,161.53,46.13,351.38,51.73,516.62,23.25,55.83-9.62,142.18-29.37,187.46-63.53,81.12-61.21-45.73-116.99-95.97-132.54-.89-4.79-1.55-9.64-2.87-14.34,6.82-4.79,15.16-10.72,21.51-15.78,2.31,6.08,7.97,9.88,13.04,13.49,2.95,2.1,28.79,17.95,29.98,16.62.8-12.77-1.62-25.38.02-38.02.26-1.98-.82-2.51,2.09-2.1,10.03,6.05,20.7,10.55,30.76,16.58,9.33,5.59,42.62,31.1,50.32,30.71-.73,3.62,1.03,11.59,0,14.34-.13.36-4.11,2.19-5.36,5.4-1.99,5.09-8.07,40.52-7.52,45.38.99,8.75,15.75,23.91,21.49,30.98-1.79,13.2,2.34,28.14-2.87,41.59-1.63.27-2.03,1.07-2.87,1.43-5.79,2.52-4.47,4.42-8.19,6.87-2.86,1.88-8.82,2.95-12.4,4.81-10.89,5.66-23.89,10.72-26.74,24.18-3.45-.52-9.76-.24-13.29.34-16.28,2.69-40.81,13.17-58.11,17.89-28.93,7.9-54.59,12.74-83.76,18.07-10.51,1.92-30.04,9.8-38.46,9.59-5.1-.13-12.29-2.64-17.87-2.93-9.98-.51-40.84,1.42-49.17,5.35-2.83,1.33-2.75,4.51-3.24,4.75-.76.37-4.21-.1-5.74,0-.48.03-.96-.02-1.43,0,.84-4.38-5.13-4.16-7.82-4.36-7.39-.54-13.4,1.5-20.08,1.56-30.64.27-61.72-1.41-92.58-1.5-26.52-.08-58.05-3.6-83.23,3.54-5.57,1.58-9.17,6.52-15.73,5.06-1.02-3.55-6.87-6.74-10.3-7.62-11.96-3.07-45.32-3.9-57.7-2.29-5.63.73-10.23,4.6-13.75,5.62-.35.1-.96.01-1.43,0-4.22-.09-10.03-5.01-14.37-6.42-32.65-10.6-80.05-14.04-115.03-19.79-13-2.14-30.24-7.88-43.47-8.29-4.59-.14-11.79,3.03-16.45,1.51-.46-.15-5.32-5.24-7.3-6.33-10.83-5.9-32.34-15.74-44.33-16.62-1.22-2.32-4.87-1.35-7.17-1.43,1.58-7.56-2.9-5.28-8.16-8.34-26.47-15.41-41.66-44.68-64.99-56.2.57-9.1,3.69-20.63,7.83-28.74,6.14-12.03,18.14-20.64,25.75-31.62,1.58-2.29,4.88-10.76,5.41-11.09,1.22-.76,5.13-.14,7.95-1.37,6.72-2.93,17.79-12.15,25.25-16.35,6.76-3.8,49.45-24.77,50.92-27.26,1.41-2.38-1.93-7.73-1.19-8.35,1.27-1.07,24.5-2.27,27.24-7.92,1.51-3.11-10.26-4.49-12.36-4.83-18.12-2.88-37.03-1.85-55.03-5.93.13-3.39,6,.51,7.16-2.85.57-1.64-7.06-14.92-8.68-16.42-4.28-3.96-18.98-7.43-24.82-11.04-5.77-3.57-14.16-13.52-19.57-18.44,5.46-5.51,15.22-8.25,22.59-11.11,14.14-5.49,28.67-10.92,43.39-14.7Z"/><path class="cls-18" d="M1833.69,1822.1c9.47,19.05,18.1,44.32,12.91,65.98-6.86,28.61-14.45,57.5-29.37,83.21-13.63,23.5-15.35,26.55-42.34,18.62-30.26-8.89-54.35-35.44-77.85-43.35-7.55-2.54-14.97.45-18.25-8.29-3.74-9.99,4.18-15.49,7.86-24.41,5.89-14.27,12.51-50.25,10.63-65.12s-11.79,2.59-14.22,8.47c-3.25,7.85-10.39,28.87-11.44,36.61-5.74-7.07-20.5-22.22-21.49-30.98-.55-4.86,5.53-40.29,7.52-45.38,1.25-3.21,5.23-5.04,5.36-5.4,12.67,3.59,23.24,23.03,36.58,22.98,4.64-.02,15.84-4.3,21.93-5.35,37.81-6.55,73.63-9.38,112.17-7.59Z"/><path class="cls-18" d="M706.38,1898.11c6.35.23,11.58,2.95,17.21,5.74,23.33,11.52,38.52,40.79,64.99,56.2,5.26,3.06,9.74.78,8.16,8.34v1.43c-5.06,1.27-26.48,29.93-32.28,35.85-15.54,15.87-34.41,28.66-49.51,45.15-2.47,2.7-15.2,17.5-15.74,19.4-19.53-4.15-38.36-21.71-53.09-35.12-22.57-20.56-42.08-44.18-60.94-68.12l-5.02,20.05c-2.21-10.36-5.08-20.78-6.75-31.25-1.42-8.91-4.98-22.88-.42-30.42,1.39,5.13,7.28,11.02,7.24,17.15,1.12.24,2.3.22,3.43.02,3.13-.53,22.97-16.09,29.42-19.39,19.13-9.76,72.54-25.8,93.29-25.03Z"/><path class="cls-22" d="M1109.4,2232.29l5.75-50.2c10.27,4.41,20.91,7.83,32.2,8.66,44.01,3.24,103.04,1.46,147.84,0,14.6-.47,32.81-1.11,47.1-3.1,21.93-3.06,42.77-12.32,64.69-15.62,3.38-.17-7.64,51.47-7.75,55.48-.05,1.95.2,3.18,1.31,4.78-26.89,10.88-60.42,15.83-89.57,17.28-41.49,2.06-78.48-3.83-119.12-7.23-22.52-1.88-46.3.52-68.4-4.75-4.07-.97-11.85-5.25-14.06-5.31Z"/><path class="cls-26" d="M1790.67,2028.63c-2.06,19.43-3.94,46.27-10.04,64.54-6.53,19.58-25.15,25.02-41.59,31.55-4.27.77-2.99-2.05-2.69-4.81,1.72-16.06,6.25-32.33,4.13-49-1-7.86-6.5,7.18-7.98,9.26-12.95,18.22-88.03,45.91-111.75,54.62-33.95,12.47-68.54,25.9-105.45,24.35.17,20.74-6.34,40.47-11.47,60.25-7.24,1.65-14.73,7.27-22.64,9.63-12.06,3.6-30.11,6.04-42.81,7.39-10.14,1.08-31.37,5.17-37.82-4.12-1.11-1.6-1.36-2.83-1.31-4.78.1-4,11.13-55.65,7.75-55.48-21.92,3.3-42.77,12.57-64.69,15.62-14.29,1.99-32.5,2.63-47.1,3.1-44.8,1.45-103.83,3.24-147.84,0-11.29-.83-21.93-4.25-32.2-8.66l-5.75,50.2c-2.25-.06-14.54,4.72-19.56,5.54-18.69,3.05-45.11,1.6-63.34-3.68-6.9-2-17.59-9.42-21.8-10.47.63-17.13-.85-34.52,0-51.63,9.03,5.3,18.23,6.49,28.41,8.16,17.19,2.82,39.65,5.55,56.94,6.16,6.55.23,17.8-.93,22.26-6.39,6.11-7.48,3.52-39.54,4.2-50.3,1.98-31.62,15.64-66.92,11.53-98.19,5.01-.18,3.96-.89,4.31,3.52.46,5.9-.35,12.08.01,18,5.94-3.07.38-19.83,10.05-16.47-1.06,8.41-5.78,18.9-5.74,27.23.04,7.51,4.39,13.64,2.52,22.63-.96,4.62-11.14,17.78-11.14,20.4v30.84c13.1-1.84,25.84.1,38.72,2.88-4.09,6.63-33.93,14.52-35.63,19.58-3.31,9.82,9.86,16.43,17.83,17.57l61.25,1.25c7.2-2.12,6.9-18.72,11.8-19.76,4.35-.93,6.96,14.8,10.26,17.26l87.96-1.5c2.06-1.93-10.77-22.4-6.37-22.96,8.67-.11,20.42-1.16,25.32,7.61,3.38,6.04,2.19,16.01,10.77,17.92,15.74,3.49,37.42-5.02,31.66-24.5-2.08-7.02-14.71-6.01-15.47-13.91l21.35,1.27c7.77-19.33-10.1-30.55-16.88-45.2-9.12-19.73-7.27-48.24-32.18-58.18-12.23-4.88-60.3-12.05-73.39-11.21-8.41.54-15.81,5.84-24.41,5.86-11.87.03-25.57-7.54-38-5.86-2.35-1.74.02-2.6,2.12-2.86,6.98-.89,15.85,1.87,22.26-1.43,30.86.09,61.93,1.77,92.58,1.5,6.68-.06,12.69-2.1,20.08-1.56,2.69.2,8.66-.02,7.82,4.36-4.87.22-13.13-1.94-15.78,2.85,4.26-.41,7.52.56,11.32,2.32,17.68,8.16,25.99,28.66,33.39,45.49,13.55,30.81,24.27,62.85,31.97,95.67,16.94,7.23,33.79,3.75,51.22.94,17.98-2.9,35.85-7.36,52.8-13.91l-67.41-111.85c10.51-3.64,28.97,28.68,32.27,28.68h20.8c.55,6.57-8.79,4.7-10.77,8.58-5.83,11.42,13.08,26.61,17.76,35.35,3.35,6.26.66,12,8.79,15.59,2.04.9,17.79,5.54,18.57,4.97.97-3.86,8.19-23.69,10.85-24.33,5.32-1.28,4.16,18.04,7.16,21.5,5.83,6.72,39.1-.28,48.05-2.13,12.69-2.63,31.61-7.19,42.99-12.95,7.5-3.79,12.6-9.96,20.08-14.34,19.39-11.36,47.36-15.43,63.8-30.86,11.81-11.08-1.22-10.85-9.18-16.53-14.08-10.06-13.76-21.18-37.37-12.11-.87-6.75,13.72-6.81,12.79-11.99-.51-2.86-16.11-13.4-19.52-14.99s-11.43-2.75-11.86-3.19c-.77-.79.47-11.47-.06-14.28l7.07,2.25,72.59,55.17c18.6-3.81,30.61-18.78,44.35-30.22,2.12-1.77,3.26-3.35,6.51-2.81Z"/><path class="cls-18" d="M1664.45,1700.19c49.39,17.75,94.07,39.83,131.95,76.01-26.46.82-54.63,3.18-80.83,7.38-9.59,1.54-19.09,3.49-28.48,5.94-6.14,1.6-19.54,7.97-24.07,8.2-7.7.39-40.99-25.13-50.32-30.71-10.06-6.02-20.74-10.53-30.76-16.58-2.92-.41-1.84.12-2.09,2.1-1.64,12.63.78,25.25-.02,38.02-1.19,1.33-27.03-14.52-29.98-16.62-5.07-3.61-10.73-7.42-13.04-13.49,8.6-6.85,17.74-15.39,25.82-22.95,10.46,6.12,25.42-4.48,34.32-10.86,7.2-5.16,26.29-25.58,33.09-26.44,5.59-.7,18.33,6.78,23.95,6.9,3.76.08,5.92-7.12,10.47-6.9Z"/><path class="cls-22" d="M1503.82,2219.38c5.12-19.78,11.64-39.5,11.47-60.25,36.91,1.56,71.5-11.88,105.45-24.35,23.72-8.71,98.8-36.4,111.75-54.62,1.48-2.08,6.98-17.12,7.98-9.26,2.12,16.67-2.42,32.94-4.13,49-.3,2.76-1.58,5.57,2.69,4.81-7.16,2.84-4.63,9-8.59,15.08-17.51,26.88-108.35,53.14-140.26,61.96-20.1,5.56-42.7,12.17-63.09,15.79-6.88,1.22-16.45.28-23.27,1.83Z"/><path class="cls-22" d="M976.02,2167.75c.16.1.02,2.41,1.47,3.49,7.39,5.56,18.92-1.28,27.22-.63-.03.48.02.96,0,1.43-.85,17.11.63,34.5,0,51.63-4.75-1.18-20.38,2.54-26.55,2.85-46.59,2.35-123.05-18.56-167.45-34.75-7.17-2.62-9.85-6.07-18.27-6.83,4.37-1.83,3.15-6.84,2.51-10.42-3.37-18.98-21.45-37.36-18.28-58.42,1.76-1.82,18.44,8.77,21.96,10.3,36.47,15.82,82.3,24.39,121.42,32.04,7.86,1.54,53.57,7.77,55.97,9.29Z"/><path class="cls-26" d="M832.59,2021.46c.26,3.69,2.08,6.04.72,9.95-2.97,8.53-23.63,26.31-24.89,32.7-1.44,7.27,7.7,8.25,8.39,14.71l-15.76-2.86c2.38,9.83-5.06,22.83-2.23,31.63,3.11,9.67,23.97,16.73,33.04,20.02,15.26,5.54,48.29,15.55,63.46,10.34,7.39-2.54,14.83-18.54,26.2-17.53.66,15.43-8.72,22.49,10.02,27.99,17.33,5.09,38.23,4.23,55.96,2.12l-11.47-27.24c7.66.16,17.8,10.46,24.79,8.37,5.68-1.7,15.9-28.85,11.06-35.62,21.12,3.65,12.73-20.92,14.46-33.59.67-4.88,4.25-15.76,10.49-13.64,3.83,1.3.57,6.83,3.71,7.06l4.32-30.11c.47.01,1.08.1,1.43,0,2.8,32.42-16.51,60.02-27.25,88.92-4.36-.78-3.45.19-5.07,2.77-11.06,17.6-15.36,42.6-37.96,50.29-2.4-1.51-48.11-7.75-55.97-9.29-39.12-7.65-84.95-16.22-121.42-32.04-3.52-1.53-20.2-12.12-21.96-10.3-3.17,21.07,14.91,39.44,18.28,58.42.63,3.57,1.85,8.59-2.51,10.42-4.87-.44-9.79.45-14.72-.34-14.4-2.32-64.44-28.05-69.9-41.25-2.97-7.17-12.07-55.29-10.9-61.82.33-1.82,2.12-3.4,2.29-4.16,13.94,15.92,38.15,28.4,58.5,34.01,26.03,7.19,19.99-2.28,29.41-21.41,14.27-28.99,23.83-44.83,45.48-68.54Z"/><path class="cls-18" d="M680.56,1751.82c-.98,3.53,3.18,3.63,5.38,3.89,16.6,1.91,32.62,1.55,49.12,6.86,7.37,2.37,16.68,9.65,22.94,10.76-5.88-.42.27,1.98-.21,6.07-1.23,10.52-21.44,20.34-29.22,26.88-4.24,3.56-17.29,16.09-19.98,20.17-2.92,4.43-3.65,10.8-7.94,15.01-2.32,2.27-7.68,3.9-8.6,5.75-2.12,4.26,10.96.29,11.46,3.57-6.84-1.04-16.35.4-23.72.05-1.88-.09-3.73-1.49-4.25-1.49h-57.37c-3.69,0-21.48,1.82-25.1,2.87,3.73-17.5,17.57-35.39,29.38-48.78,18.54-21.03,35.12-36.14,58.11-51.61Z"/><path class="cls-27" d="M703.51,1850.78c6.01.91,8.47,12.49,8.65,18.01.33,10.28-5.84,19.24-5.78,29.32-20.75-.77-74.16,15.27-93.29,25.03-6.45,3.29-26.29,18.85-29.42,19.39-1.13.19-2.31.21-3.43-.02.04-6.13-5.85-12.02-7.24-17.15-3.2-11.85.02-42.34,3.56-54.53,2.38-8.18,7.93-16.12,16.52-18.62,3.62-1.05,21.41-2.87,25.1-2.87h57.37c.52,0,2.37,1.4,4.25,1.49,7.37.34,16.88-1.09,23.72-.05Z"/><path class="cls-22" d="M699.21,2070.22c-.52,1.84.47,5.17,0,7.17-.18.76-1.97,2.33-2.29,4.16-1.17,6.52,7.93,54.65,10.9,61.82-14.24-.97-26.78-7.95-38.6-15.18-60.36-36.94-74.75-74.31-89.04-141.15l5.02-20.05c18.85,23.93,38.36,47.56,60.94,68.12,14.73,13.41,33.56,30.97,53.09,35.12Z"/><path class="cls-27" d="M1796.4,1776.2c17.07,16.3,26.64,24.47,37.29,45.9-38.54-1.79-74.36,1.04-112.17,7.59-6.08,1.05-17.29,5.34-21.93,5.35-13.34.05-23.91-19.39-36.58-22.98,1.03-2.75-.73-10.72,0-14.34,4.53-.23,17.93-6.6,24.07-8.2,9.4-2.45,18.89-4.4,28.48-5.94,26.2-4.2,54.37-6.55,80.83-7.38Z"/><path class="cls-22" d="M1780.63,2093.17c6.1-18.27,7.98-45.11,10.04-64.54.98-9.29,6.37-18.36-2.12-25.84-4.33-3.82-14.22-5.19-13.65-12.88,26.99,7.93,28.7,4.88,42.34-18.62,14.92-25.72,22.51-54.6,29.37-83.21,1.42,4.91,2.6,12.88,2.85,17.94,3.82,75.1-.17,133.09-61.62,183.6-2.24,1.84-4.14,3.38-7.21,3.56Z"/><path class="cls-27" d="M753.71,1711.66c1.01-.17,3.31-.18,4.3,0,.46.08.97-.06,1.43,0,5.41,4.91,13.8,14.87,19.57,18.44,5.84,3.61,20.54,7.08,24.82,11.04,1.62,1.5,9.25,14.78,8.68,16.42-19.07.69-33.78,19.46-54.5,15.78-6.27-1.11-15.57-8.39-22.94-10.76-16.5-5.31-32.52-4.96-49.12-6.86-2.2-.25-6.36-.36-5.38-3.89,19.53-13.15,39.28-26.53,61.16-35.65,3.58-1.49,8.33-3.89,11.99-4.51Z"/><path class="cls-21" d="M1664.45,1700.19c-4.55-.22-6.72,6.98-10.47,6.9-5.62-.12-18.36-7.6-23.95-6.9-2.21-2.65-11.18-10.65-13.65-11.46-3.73-1.22-.95,3.87-2.91,4.38-2.29.6-6.55-.58-9.26-.1,2.6-3.16,6.42-7.15,8.61-10.04,17.35,5.22,34.59,11.09,51.63,17.21Z"/><path class="cls-5" d="M758.01,1711.66c-.99-.18-3.29-.17-4.3,0,.2-2.16,4.1-2.16,4.3,0Z"/><path class="cls-23" d="M891.4,1786.24c-6.93,36.9-12.59,74.12-19.73,110.99,1.5,7.87,45.34,26.38,53.36,25.29,3.02-.41,4.6-3.15,6.48-5.1,11.04-11.43,24.03-31.95,33.35-45.53,12.04-17.54,23.38-35.74,34.1-54.1,130.29,55.68,284.03,53.38,417.36,8.61-.47,2.99,1.23,4.55,2.55,6.77,10.25,17.26,21.94,34.7,33.57,51.06,4.69,6.6,25.4,36.36,30.88,38,7.6,2.28,49.7-15.61,52.72-22.71.49-1.16.94-2.25.89-3.54-5.78-35.23-12.28-70.35-18.78-105.43,50.24,15.55,177.09,71.33,95.97,132.54-45.28,34.16-131.63,53.91-187.46,63.53-165.25,28.48-355.09,22.89-516.62-23.25-48.1-13.74-215.24-67.03-122.36-133.83,29.61-21.3,68.85-33.64,103.72-43.29Z"/><path class="cls-27" d="M1630.03,1700.19c-6.79.86-25.88,21.28-33.09,26.44-8.9,6.38-23.86,16.97-34.32,10.86,13.87-12.98,29.53-29.79,41.59-44.46,2.71-.49,6.97.69,9.26.1,1.96-.51-.82-5.6,2.91-4.38,2.47.81,11.44,8.81,13.65,11.46Z"/><path class="cls-18" d="M1227.01,2021.46c-6.41,3.3-15.28.54-22.26,1.43-2.09.27-4.47,1.12-2.12,2.86,12.43-1.68,26.13,5.89,38,5.86,8.6-.02,16-5.32,24.41-5.86,13.08-.84,61.16,6.33,73.39,11.21,24.91,9.94,23.06,38.45,32.18,58.18,6.77,14.65,24.65,25.87,16.88,45.2l-21.35-1.27c.76,7.9,13.39,6.89,15.47,13.91,5.76,19.48-15.92,27.99-31.66,24.5-8.58-1.9-7.39-11.88-10.77-17.92-4.91-8.77-16.66-7.72-25.32-7.61-4.4.56,8.43,21.02,6.37,22.96l-87.96,1.5c-3.3-2.46-5.91-18.19-10.26-17.26-4.89,1.04-4.6,17.64-11.8,19.76l-61.25-1.25c-7.96-1.14-21.14-7.75-17.83-17.57,1.71-5.06,31.54-12.95,35.63-19.58-12.88-2.78-25.62-4.72-38.72-2.88v-30.84c0-2.62,10.18-15.78,11.14-20.4,1.87-8.99-2.48-15.12-2.52-22.63-.04-8.33,4.68-18.82,5.74-27.23-9.67-3.35-4.11,13.41-10.05,16.47-.36-5.92.45-12.1-.01-18-.35-4.4.71-3.69-4.31-3.52-.07-.5.12-1.03,0-1.43,6.57,1.46,10.16-3.48,15.73-5.06,25.18-7.14,56.71-3.62,83.23-3.54Z"/><path class="cls-18" d="M1618.56,1972.69c5.42.82,20.52,12.59,25.67,16.64,3.82,3.01,15.15,10.83,15.93,14.91.53,2.82-.71,13.49.06,14.28.43.44,8.33,1.55,11.86,3.19s19,12.13,19.52,14.99c.93,5.18-13.66,5.23-12.79,11.99,23.61-9.07,23.29,2.04,37.37,12.11,7.96,5.69,20.99,5.45,9.18,16.53-16.44,15.43-44.41,19.5-63.8,30.86-7.48,4.38-12.58,10.55-20.08,14.34-11.38,5.76-30.3,10.32-42.99,12.95-8.96,1.86-42.22,8.86-48.05,2.13-3-3.46-1.84-22.78-7.16-21.5-2.66.64-9.88,20.47-10.85,24.33-.78.56-16.53-4.07-18.57-4.97-8.13-3.58-5.44-9.33-8.79-15.59-4.68-8.74-23.58-23.93-17.76-35.35,1.98-3.88,11.32-2.01,10.77-8.58h-20.8c-3.3,0-21.76-32.33-32.27-28.68-5.62-10.7-13.97-18.74-20.08-28.68,8.42.21,27.95-7.67,38.46-9.59,29.17-5.33,54.83-10.18,83.76-18.07,17.31-4.72,41.84-15.21,58.11-17.89,3.52-.58,9.84-.86,13.29-.34Z"/><path class="cls-18" d="M1044.86,2025.76l-4.32,30.11c-3.15-.23.11-5.76-3.71-7.06-6.24-2.12-9.82,8.77-10.49,13.64-1.73,12.66,6.66,37.24-14.46,33.59,4.85,6.77-5.38,33.92-11.06,35.62-6.99,2.09-17.14-8.22-24.79-8.37l11.47,27.24c-17.74,2.11-38.63,2.97-55.96-2.12-18.74-5.5-9.36-12.55-10.02-27.99-11.37-1.01-18.81,14.99-26.2,17.53-15.17,5.21-48.2-4.8-63.46-10.34-9.07-3.29-29.93-10.36-33.04-20.02-2.83-8.8,4.61-21.8,2.23-31.63l15.76,2.86c-.69-6.46-9.83-7.44-8.39-14.71,1.26-6.38,21.92-24.17,24.89-32.7,1.36-3.91-.46-6.27-.72-9.95,8.1-8.87,18.66-17.36,22.95-28.68,4.66,1.52,11.86-1.65,16.45-1.51,13.23.41,30.47,6.15,43.47,8.29,34.98,5.75,82.38,9.19,115.03,19.79,4.35,1.41,10.15,6.33,14.37,6.42Z"/><path class="cls-27" d="M1128.05,2030.06c.12.4-.07.94,0,1.43,4.11,31.26-9.55,66.56-11.53,98.19-.67,10.76,1.92,42.83-4.2,50.3-4.47,5.46-15.71,6.62-22.26,6.39-17.29-.61-39.75-3.34-56.94-6.16-10.18-1.67-19.38-2.86-28.41-8.16.02-.48-.03-.96,0-1.43,1.1-17.43,8.22-39.47,14.34-55.94,10.74-28.9,30.05-56.51,27.25-88.92,3.52-1.01,8.12-4.88,13.75-5.62,12.38-1.61,45.74-.78,57.7,2.29,3.44.88,9.28,4.07,10.3,7.62Z"/><path class="cls-27" d="M1424.93,2018.59c6.11,9.94,14.46,17.99,20.08,28.68l67.41,111.85c-16.95,6.55-34.82,11.01-52.8,13.91-17.43,2.81-34.28,6.28-51.22-.94-7.7-32.82-18.43-64.86-31.97-95.67-7.4-16.83-15.71-37.33-33.39-45.49-3.8-1.75-7.06-2.72-11.32-2.32,2.64-4.79,10.91-2.64,15.78-2.85.48-.02.96.03,1.43,0,.76,2.23,5.14,2.25,5.74,0,.49-.24.41-3.42,3.24-4.75,8.33-3.93,39.18-5.86,49.17-5.35,5.58.29,12.77,2.8,17.87,2.93Z"/><path class="cls-27" d="M803.91,1969.82c11.99.88,33.5,10.72,44.33,16.62,1.99,1.08,6.85,6.18,7.3,6.33-4.29,11.32-14.85,19.82-22.95,28.68-21.65,23.71-31.21,39.55-45.48,68.54-9.42,19.13-3.37,28.6-29.41,21.41-20.35-5.62-44.56-18.1-58.5-34.01.47-2-.52-5.33,0-7.17s13.26-16.7,15.74-19.4c15.1-16.49,33.97-29.28,49.51-45.15,5.8-5.92,27.22-34.58,32.28-35.85,1.41-.35,5.39-.13,7.17,0Z"/><path class="cls-27" d="M1665.89,1936.84c2.34.21,4.86-.31,7.17,0,1.44.19,3.64,1.98,5.74,1.43,3.27,8.74,10.69,5.75,18.25,8.29,23.5,7.91,47.58,34.45,77.85,43.35-.57,7.69,9.32,9.06,13.65,12.88,8.5,7.49,3.11,16.56,2.12,25.84-3.25-.53-4.38,1.04-6.51,2.81-13.74,11.45-25.76,26.42-44.35,30.22l-72.59-55.17-7.07-2.25c-.77-4.08-12.1-11.9-15.93-14.91-5.15-4.05-20.25-15.83-25.67-16.64,2.85-13.45,15.85-18.51,26.74-24.18,3.58-1.86,9.54-2.93,12.4-4.81,3.72-2.45,2.4-4.34,8.19-6.87Z"/><path class="cls-22" d="M812.51,1757.56c-1.17,3.37-7.04-.54-7.16,2.85,18,4.08,36.92,3.05,55.03,5.93,2.09.33,13.86,1.72,12.36,4.83-2.74,5.65-25.97,6.84-27.24,7.92-.73.62,2.6,5.96,1.19,8.35-1.47,2.48-44.16,23.45-50.92,27.26-7.45,4.19-18.53,13.42-25.25,16.35-2.82,1.23-6.73.61-7.95,1.37-.52.33-3.82,8.8-5.41,11.09-7.61,10.99-19.6,19.59-25.75,31.62-4.14,8.11-7.27,19.64-7.83,28.74-5.64-2.78-10.87-5.5-17.21-5.74-.06-10.08,6.11-19.04,5.78-29.32-.18-5.52-2.63-17.1-8.65-18.01-.5-3.28-13.58.7-11.46-3.57.92-1.85,6.28-3.47,8.6-5.75,4.29-4.21,5.02-10.57,7.94-15.01,2.69-4.08,15.74-16.61,19.98-20.17,7.79-6.54,27.99-16.37,29.22-26.88.48-4.09-5.67-6.49.21-6.07,20.72,3.68,35.43-15.08,54.5-15.78Z"/><path class="cls-22" d="M1671.62,1893.81c1.05-7.74,8.19-28.76,11.44-36.61,2.43-5.87,12.28-23.77,14.22-8.47s-4.74,50.86-10.63,65.12c-3.68,8.92-11.6,14.42-7.86,24.41-2.09.54-4.3-1.24-5.74-1.43-.56-1.68-2.88-1.67-4.3-1.43,5.21-13.45,1.08-28.4,2.87-41.59Z"/><path class="cls-18" d="M1668.76,1935.4c1.43-.24,3.74-.24,4.3,1.43-2.32-.31-4.83.21-7.17,0,.84-.37,1.24-1.16,2.87-1.43Z"/><path class="cls-5" d="M803.91,1969.82c-1.78-.13-5.76-.35-7.17,0v-1.43c2.3.08,5.95-.89,7.17,1.43Z"/><path class="cls-26" d="M1354.66,2025.76c-.6,2.25-4.98,2.23-5.74,0,1.53-.1,4.98.37,5.74,0Z"/><path class="cls-18" d="M1019.04,2114.68c-6.12,16.46-13.24,38.51-14.34,55.94-8.3-.66-19.83,6.19-27.22.63-1.44-1.09-1.31-3.39-1.47-3.49,22.6-7.69,26.9-32.69,37.96-50.29,1.62-2.58.71-3.55,5.07-2.77Z"/><g class="cls-2"><path class="cls-8" d="M1159.44,1852.32c.26.04-.03.46-.58.38-.26-.04.03-.46.58-.38Z"/><path class="cls-8" d="M969.91,1891.31c-.05.19-.63-.02-.52-.42.05-.19.63.02.52.42Z"/><path class="cls-6" d="M1522.22,1888.72c18.04-25.34-28.7-28.75-54.67-57.86-12.58-14.11-66.71-50.14-69.24-39.7-2.92,12.03,5.38,10.51-1.39,22.43-6.59,11.6-32.28,23.91-28.37,7.81,2.45-10.07,13.77-17.24,7.36-29-3.78-6.95-17.78-17.08-27.87-22.11-.43-.21-.7-.45-1.32-.49,6.33,15.14,1.97,29.58-13.92,40.29-14.42,9.71-30.17,15.68-42.16,27.26-3.39,3.27-6.29,6.72-8.74,10.28-3.75-15.8-12.77-30.54-27.58-39.97-15.82-10.07-37.11-14.37-47.41-29.08-13.69-19.56-52.33,12.88-37.34,29.5,6.65,7.37,22.07,14.7,12.27,24.58-7.99,8.05-23.38,7.05-35.29,8.64-3.33.45-6.58,1.1-9.73,1.93-2.57-3.89-5.69-7.65-9.37-11.2-11.99-11.58-27.74-17.54-42.16-27.26-15.89-10.7-20.25-25.14-13.92-40.29-.63.04-.89.28-1.32.49-10.09,5.03-24.08,15.16-27.87,22.11-6.4,11.76,4.92,18.93,7.36,29,3.91,16.1-13.27,7.77-19.87-3.84-6.78-11.93-6.98-14.38-9.9-26.4-2.54-10.44-56.66,25.59-69.24,39.7-26.81,30.06-36.46,32.97-16.29,59.01-11.56,4.06-67.72,15.33-71.38,17.68-32.66,21.01,107.06,70.2,346.18,70.2s354.34-44.04,358.64-64.17c2.59-12.12-38.47-16.3-45.46-19.53ZM1298.89,1858.73c.24-.3,1.03-1.45,1.66-.73,1.13,1.28,2.28,4.85,3.18,6.48,3.77,6.8,8.6,13.83,17.74,19.44-3.51-9.29-5.3-18.68-4.1-27.75,1.63-12.33,9.69-30.3,27.5-37.12.81-.31,4.07-1.48,4.83-1.5.94-.02.39.34.26.53-5.45,8.04-12.25,12.64-11.49,22.54,1.34,17.51,34.89,28.39,62.16,25.24,22-2.54,26.41-12.32,28.36-24.05.86-5.21.5-10.58.68-15.86.93.12,1.16.93,1.52,1.38,14.97,18.54,18.75,35.34,5.74,52.08-2.03,2.61-6.34,6.15-7.54,8.7-2.66,5.65,8.12,6.04,14.4,4.26,7.22-2.04,12.23-5.92,14.31-10.37,3.47,7.7,1.3,15.48-3.42,22.44-34.22-7.94-90.04-14.08-157.05-17.05-3.04-9.81-3.89-22.28,1.25-28.68ZM1145.08,1867.97c10.41-4.93,20.66-5.55,31.54-8.9,10.26-3.16,17.53-8.88,19.2-17.17.86.51,1.1,2.07,1.2,2.87.71,5.8-1.52,11.71-6.92,16.01-4.61,3.68-17.78,7.87-13.41,14.4,3.5,5.23,30.87,14.4,36.11,11.25,18.8-11.33,62.71-14.18-5.87-61.68-7.49-5.19-14.24-13.59-16.77-22.03-1.8-6-.65-12.4.72-18.39l1.33,7.1c4.27,16.42,17.86,20.67,33.48,29.99,13.71,8.19,23.26,19.48,25.8,32.45,1.99,10.13,1.21,21.47-2.75,31.99-13.82-.27-27.96-.41-42.36-.41-22.38,0-44.16.34-65.06.98,2.7-6.08,3.92-12.29,3.75-18.46,0,0,0,0,0,0ZM959.98,1876.69c2.08,4.45,7.09,8.33,14.31,10.37,6.28,1.78,17.05,1.39,14.4-4.26-1.2-2.55-5.51-6.09-7.54-8.7-13.01-16.74-9.23-33.54,5.74-52.08.36-.45.59-1.26,1.52-1.38.18,5.28-.19,10.66.68,15.86,1.95,11.73,6.36,21.51,28.36,24.05,27.27,3.15,60.82-7.73,62.16-25.24.76-9.9-6.04-14.5-11.49-22.54-.13-.19-.68-.54.26-.53.76.01,4.02,1.19,4.83,1.5,17.82,6.82,25.87,24.79,27.5,37.12.65,4.91.4,9.91-.5,14.93-5.5,6.78-9.03,14.42-9.94,22.3-.02.2-.02.4-.03.6-51.14,2.99-94.3,7.9-124.17,14.02-6.48-7.81-10.16-16.97-6.09-26.01Z"/><path class="cls-16" d="M988.41,1820.64c.18,5.28-.19,10.66.68,15.86,1.95,11.73,6.36,21.51,28.36,24.05,27.27,3.15,60.82-7.73,62.16-25.24.76-9.9-6.04-14.5-11.49-22.54-.13-.19-.68-.54.26-.53.76.01,4.02,1.19,4.83,1.5,17.82,6.82,25.87,24.79,27.5,37.12,1.2,9.07-.59,18.45-4.1,27.75,9.15-5.6,13.97-12.63,17.74-19.44.9-1.63,2.05-5.2,3.18-6.48.63-.72,1.42.43,1.66.73,6.65,8.27,3.3,26.7-1.88,36.4-6.06,11.34-13.75,19.95-31.11,28.01-45.1,20.95-88.85,13.28-113.25-8.11-10.24-8.97-18.34-21.1-12.98-33.03,2.08,4.45,7.09,8.33,14.31,10.37,6.28,1.78,17.05,1.39,14.4-4.26-1.2-2.55-5.51-6.09-7.54-8.7-13.01-16.74-9.23-33.54,5.74-52.08.36-.45.59-1.26,1.52-1.38ZM1080.66,1878.32c-.71-.19-1.69,1.49-2.06,1.8-9.56,8.28-29.97,13.48-43.62,8.92-9.88-3.3-17.73-11.01-22.59-16.79-.12-.04-.43.21-.51.33-.58.88-.83,4.32-.89,5.4-.7,13.35,8.55,24.71,27.56,31.16l3.54.84c-8.01,1.21-16.54,1.01-23.52-.5-.89.09-.53.33-.38.64,1.04,2.24,6.76,7.08,9.5,8.85,8.62,5.58,22.88,6.72,36.86,3.06,18.65-4.89,24.07-19.43,24.94-28.8l-4.69,3.92c-3.15,2.33-6.9,4.39-11.21,6.05-.84.32-2.02.91-2.97.9,9.9-7.93,10.06-17.31,10.05-25.79Z"/><path class="cls-12" d="M1080.66,1878.32c0,8.48-.16,17.86-10.05,25.79.95,0,2.13-.58,2.97-.9,4.32-1.65,8.06-3.71,11.21-6.05l4.69-3.92c-.87,9.37-6.29,23.91-24.94,28.8-13.98,3.66-28.24,2.52-36.86-3.06-2.74-1.78-8.46-6.61-9.5-8.85-.14-.31-.51-.55.38-.64,6.98,1.51,15.51,1.7,23.52.5l-3.54-.84c-19-6.45-28.26-17.81-27.56-31.16.06-1.08.31-4.52.89-5.4.08-.13.39-.38.51-.33,4.87,5.78,12.71,13.49,22.59,16.79,13.65,4.56,34.06-.64,43.62-8.92.36-.32,1.35-1.99,2.06-1.8Z"/></g><path class="cls-7" d="M1515.29,1776.2c1.32,4.7,1.98,9.55,2.87,14.34,6.5,35.08,13,70.2,18.78,105.43.05,1.29-.4,2.39-.89,3.54-3.02,7.1-45.12,24.99-52.72,22.71-5.48-1.64-26.19-31.4-30.88-38-11.63-16.36-23.33-33.8-33.57-51.06-1.32-2.22-3.02-3.77-2.55-6.77,35.47-11.91,68.34-28.7,98.96-50.2ZM1481.97,1835.26c-7.51.85-27.74,11.82-26.92,20.39.59,6.14,29.23,49,34.79,51.4,17.53,7.57,12.1-23.01,10.65-32.16-1.22-7.73-5.7-29.15-9.26-35.2-2.25-3.82-4.85-4.94-9.26-4.44Z"/><path class="cls-1" d="M1481.03,1830.16c5.12-.56,8.13.7,10.75,5.02,4.14,6.84,9.34,31.07,10.75,39.81,1.68,10.35,7.98,44.94-12.37,36.37-6.45-2.72-39.7-51.2-40.38-58.14-.95-9.69,22.53-22.1,31.25-23.06Z"/><path class="cls-7" d="M1004.65,1806.04c-10.73,18.36-27.76,48.32-39.79,65.86-9.32,13.59-22.31,34.1-33.35,45.53-1.88,1.95-3.46,4.69-6.48,5.1-8.02,1.09-51.86-17.43-53.36-25.29,7.13-36.87,12.79-74.09,19.73-110.99,1.8-9.55,6.37-31.91,7.78-41.54,30.59,24.03,69.65,46.03,105.48,61.34ZM885.86,1892.17c7.5,4.67,20.84-8.34,25.57-13.46,4.9-5.3,26.44-34.4,25.63-39.79-1.03-6.82-13.91-11.7-19.84-13.24-17.61-4.57-16.39-2.88-21.9,12.54-2.7,7.57-15.77,50.02-9.46,53.95Z"/><path class="cls-1" d="M882.24,1899.02c-6.31-3.93,6.73-52.67,9.44-60.23,5.51-15.42,3.06-24,20.68-19.43,5.93,1.54,27.15,13.17,28.18,19.98.81,5.4-23.49,38-28.39,43.3-4.74,5.12-22.4,21.05-29.9,16.38Z"/><path class="cls-11" d="M772.36,1361.71c-3.64,17.63,5.82,26.78,22.79,19.2,25.08-11.19,47.03-39.47,68.3-56.47-1.18,35.97,55.38,21.95,74.85,10.29,3.37-2.02,5.17-5.75,9.03-6.01,1.04,21.8-10.6,73.07,5.74,89.63,12.22,12.39,36.4-.67,45.22-12.16,8.68-11.31,9.89-27.97,18.43-40.38,10.55-15.34,16.07-10.48,15.22,6.63-1.27,25.51-13.57,59.88-3.98,84.32,7.44,18.95,30.51,13.83,41.26.27,25.94-32.7,10.64-129.08,36.6-148.42,14.7-10.95,26.05-.57,27.82,15.22,2.97,26.45-14.5,48.95-16.87,74.61-3.56,38.64,10.18,75.75,54.96,75.16,69.14-.91,23.81-125.93,48.78-152.14,16.32-17.13,20.21,13.05,20.84,23.74,2.6,43.92-17.53,133.52,39.05,151.7,42.8,13.75,76.89-16.54,75.76-59.98-.49-18.79-11.31-42.57-8.57-60.09,2.9-18.53,30.73-24.46,39.75-4.07,11.07,25.02,15.13,78.4,46.15,84.36,27.75,5.33,36.22-18.69,36.01-41.71-.3-32.32-32.1-101.06,27.64-99.52,31.3.81,29.08,24.12,38.45,46.3,11.93,28.23,39.7,50.16,70.74,52.6,28.14,2.22,55.19-.23,53.84-34.47,3.83-.83,2.78,1.94,3.57,4.25,32.02,94.22,9.52,205.96-46.86,285.92-91.53,129.81-233.02,180.11-387.64,186.06-204.38,7.87-423.85-106.04-467.89-318.19-11.7-56.36-13.72-123.68,11.03-176.68ZM842.63,1642.82c8.89,36.05,36.83,69.85,64.52,93.96,135.01,117.55,312.83,96.69,415.68-49.05,63.24-89.6,6.02-118.04-75.75-143.15-102.27-31.41-204.48-46.32-303.59-90.83-33.21-14.91-70.84-42.89-105.16-49.02-12.12-2.16-24.91-5.57-35.91,3.53-17.17,14.2-19.81,63.79-18.65,84.73,3.07,55.7,27.65,104.99,58.86,149.82Z"/><path class="cls-1" d="M838.33,1404.73c34.32,6.12,71.96,34.1,105.16,49.02,99.11,44.51,201.32,59.41,303.59,90.83,81.77,25.12,138.99,53.55,75.75,143.15-102.86,145.74-280.67,166.6-415.68,49.05-27.69-24.11-55.63-57.91-64.52-93.96,19.14,27.49,56.52,72.74,87.95,84.88,41.28,15.95,30.46-12.45,19.42-36.63-24.13-52.87-67.17-105.7-81.14-162.68-7.6-31,2.15-98.31-24.07-119.35-2.04-1.64-4.78-2.18-6.46-4.3Z"/><path class="cls-25" d="M838.33,1404.73c1.68,2.13,4.42,2.66,6.46,4.3,26.22,21.03,16.47,88.35,24.07,119.35,13.97,56.98,57,109.81,81.14,162.68,11.04,24.18,21.86,52.58-19.42,36.63-31.43-12.14-68.8-57.39-87.95-84.88-31.21-44.82-55.79-94.12-58.86-149.82-1.16-20.94,1.48-70.53,18.65-84.73,11-9.1,23.79-5.7,35.91-3.53Z"/><path class="cls-14" d="M1591.31,1265.61c22.61-37.82,62.25-66.92,106.87-71.69,61.63-6.58,134.25,19.21,156.66,81.38,34.78,96.48-27.23,182.48-109.11,227.21-12.57,6.86-41.01,14.27-44.74,28.39-7.19,27.16,34.82,41.35,41.67,14.43,3.82-15-4.83-22.68,9.43-36.46,25.26-24.41,33.52,3.63,31.45,27.15-3.99,45.37-46,71.08-88.99,57.33-10.63-3.4-18.71-10.37-28.66-13.64-4.99,19.04-13.41,38.12-22.71,55.47-6.41,11.96-14.04,25.22-21.76,36.33-2.12,3.04-6.12,8.19-8.61,11.47-2.19,2.89-6.01,6.88-8.61,10.04-12.07,14.67-27.72,31.48-41.59,44.46-8.07,7.55-17.21,16.1-25.82,22.95-6.35,5.05-14.69,10.99-21.51,15.78-30.62,21.5-63.5,38.29-98.96,50.2-133.34,44.78-287.07,47.07-417.36-8.61-35.83-15.31-71.24-36.2-101.83-60.24-27.03-21.24-49.69-45.48-71.71-71.71-2.79-3.32-4.79-9.87-10.04-10.04-3.29-9.98-11.48-18.95-16.94-28.24-9.86-16.8-17.82-34.54-24.68-52.77-1.66-4.4-7.56-26.96-8.59-28-2.16-2.18-2.53.87-3.27,1.81-7.41,9.47-9.77,15.19-20.66,22.3-47.93,31.29-105.06,5.39-109.42-52.09-1.5-19.75,6.42-43.31,28.67-25.81,17.91,14.08,8.19,20.11,12.44,37.76,8.19,34.01,58.59,7.42,38.38-19.73-6.1-8.19-29.92-15.77-40.32-21.35-43.53-23.33-98.95-74.44-111.93-123.28-25.48-95.88,17.89-172.88,118.09-185.15,66.56-8.15,109.31,17.61,146.87,69.42,1.25,1.72,1.01,4.28,4.26,3.55-1.51,1.71-3.31,3.13-4.3,4.3-11.16-23.01-30.68-42.78-52.63-55.66-73-42.85-187.88-15.25-210.57,72.85-3.3,12.82-6.78,30.16-3.57,43.04-1.53,16.37.88,29.86,5.01,45.91,1.06,4.1,2.1,9.82,5.03,12.9-.67,16.17,42.98,62.35,55.92,73.88,21.23,18.93,41.78,30.77,66.92,43.52,8.97,4.55,19.27,5.9,24.89,15.98.84,2.42,3.1,7.27,4.3,10.04,1.78,15.22-12.62,28.74-27.24,28.7l5.73,1.42-4.3,1.43c-4.13-1.03-8.97-2.73-12.91-4.3-4.13-3.87-7.99-8.27-10.1-13.56-5.98-15,5.39-25.69-11.54-38.66-4.05-3.11-9.39-6.76-14.78-4.97-2.43.81-1.94,3.77-2.31,4.12-.17.17-2.11-.4-2.93.94-8.34,13.65-.06,43.23,8.15,56.23,28.97,45.89,97.64,32.8,115.16-14.67l-11.38-55.41c3.62-9.97.12-24.03-1.43-34.42-1.22-8.17,1.24-6.77-4.39-14.63-7.96-11.09-22.02-22.79-32.9-31.27-14.39-11.22-44.2-26.21-47.24-45.27-2.96-18.54,9.3-31.16,27.88-29.31,18.04,1.79,17.92,17.88,23.87,30.63,7.54,16.15,20.51,26.3,38.51,28.18,2.68-25.45,14.12-48.77,25.54-71.28,1.33-2.63,5.38-6.37,6.02-9.04h1.43c-5.55,9.45-13.6,25.33-15.78,35.86-24.75,53-22.73,120.32-11.03,176.68,44.04,212.15,263.51,326.06,467.89,318.19,154.62-5.95,296.11-56.25,387.64-186.06,56.38-79.96,78.88-191.7,46.86-285.92-.79-2.31.27-5.08-3.57-4.25-.46-11.61-4.27-22.41-8.61-32.99,8.88,15.22,14.27,32.09,19.45,48.85,15.28-2.04,23.68-14.96,29.57-27.79,2.69-5.86,3.56-13.32,7.14-18.67,14.08-21.08,55-6.46,41.04,26.7-9.47,22.49-55.97,39.21-69.69,62.31,1.14,10.41,1.05,20.75,1.18,31.22.3,24.98-.53,47.58-4.76,72.71-1.09,6.46-7.9,28.96-6.03,32.73.99,1.99,12.73,8.96,15.54,10.3,38.09,18.21,77.33,5.62,91.39-35.35,3.63-10.57,8.09-35.81-1.49-43.8-.47-.4-1.06-1.35-1.43-1.43-6.76-6.23-21.83,7.5-24.38,12.91-3.36,7.13-.24,18.17-2.42,26.98-1.4,5.66-7.81,15.58-13.36,17.48-26.62,9.11-55.46-29.38-20.83-48.8,16.93-9.49,33.93-14.83,51.14-26.31,62.54-41.71,101.2-95.68,95.96-173.79-8.81-131.36-195.73-157.31-262.87-50.48-1.39,2.21-2.92,3.89-2.52,6.79-2.17-2.05-2.68-4.13-2.87-4.3ZM1677.37,1431.98c2.48.64,2.87-1.02,4.31-2.13,4.99-3.86,10.14-9.62,15.09-13.6,15.31-12.3,43.89-26.24,50.11-44.54,8.6-25.31-24.62-38.89-36.82-18.19-8.76,14.86-6.81,28.02-24.18,40.36-2.77,1.97-11,4.7-12.12,6.53-3.28,5.33,5.25,24.27,3.61,31.57ZM753.72,1409.04c-14.71-.91-28.36-9.67-36.15-21.95-5.45-8.59-6.99-19.88-11.4-27.33-11.52-19.48-48.7-6.94-35.46,22.55,7.02,15.65,36.54,30.43,50.69,42.53,9.81,8.39,18.2,18.09,27.3,27.2l5.02-43.02Z"/><path class="cls-11" d="M1733.3,1562.5c-3.39,1.56-6.62,6.15-12.9,4.32l12.19,1.42c11.43,1.42,39.39-25.77,38-35.12-.31-2.06-12.99-1.45-15.68-2.08-1.5,9.64-5.49,22.61-13.95,28.35-2.68,1.82-5.25,1.99-7.65,3.1,5.55-1.9,11.96-11.82,13.36-17.48,2.18-8.81-.94-19.85,2.42-26.98h1.43c-1.93,9.86,15.65,6.96,21.14,4.65,7.82-3.29,3.33-9.78,3.24-16.12,9.58,7.98,5.12,33.22,1.49,43.8-14.07,40.97-53.31,53.56-91.39,35.35-2.81-1.34-14.55-8.31-15.54-10.3-1.87-3.76,4.94-26.27,6.03-32.73,4.23-25.13,5.06-47.73,4.76-72.71-.12-10.47-.04-20.81-1.18-31.22,13.72-23.1,60.23-39.81,69.69-62.31,13.96-33.16-26.96-47.78-41.04-26.7-3.58,5.36-4.46,12.81-7.14,18.67-5.89,12.84-14.29,25.76-29.57,27.79-5.18-16.76-10.57-33.63-19.45-48.85-12.35-30.15-34-55.36-57.37-77.45-.4-2.9,1.13-4.59,2.52-6.79,67.14-106.83,254.06-80.88,262.87,50.48,5.24,78.11-33.42,132.08-95.96,173.79-17.21,11.48-34.21,16.82-51.14,26.31-34.63,19.42-5.78,57.91,20.83,48.8ZM1829.38,1255.57c4.04-4.1-11.35-18.06-14.31-20.81-54.45-50.44-132.78-41.64-185.71,6.52-25.24,22.97.17,52.08,24.11,37.02,32.22-20.27,49.1-45.51,93.39-47.15,32.77-1.22,52.5,18.06,82.53,24.43ZM1775.9,1354.75c-5.87,1.67-26.88,36.07-33.96,43.56-11.55,12.22-40.37,25.07-47.18,37.44-4.36,7.92-12.81,50.07,4.1,45.82,7.17-1.8,27.15-14.41,34.04-19.15,25.94-17.87,48.74-49.33,51.85-81.54.59-6.07,1.27-29.02-8.85-26.14Z"/><path class="cls-25" d="M1773.45,1505.13c.37.08.96,1.04,1.43,1.43.1,6.35,4.59,12.83-3.24,16.12-5.5,2.31-23.07,5.21-21.14-4.65,1.13-5.78,16.87-14.23,22.95-12.91Z"/><path class="cls-1" d="M1773.45,1505.13c-6.08-1.32-21.82,7.13-22.95,12.91h-1.43c2.55-5.41,17.62-19.14,24.38-12.91Z"/><path class="cls-25" d="M1829.38,1255.57c-30.03-6.36-49.75-25.65-82.53-24.43-44.29,1.65-61.17,26.89-93.39,47.15-23.94,15.06-49.35-14.05-24.11-37.02,52.93-48.16,131.26-56.96,185.71-6.52,2.97,2.75,18.36,16.71,14.31,20.81Z"/><path class="cls-25" d="M1775.9,1354.75c10.12-2.88,9.44,20.07,8.85,26.14-3.11,32.2-25.91,63.66-51.85,81.54-6.88,4.74-26.87,17.35-34.04,19.15-16.92,4.25-8.46-37.9-4.1-45.82,6.8-12.38,35.63-25.22,47.18-37.44,7.08-7.5,28.1-41.89,33.96-43.56Z"/><path class="cls-25" d="M1733.3,1562.5c2.41-1.11,4.97-1.28,7.65-3.1,8.46-5.74,12.45-18.71,13.95-28.35,2.69.63,15.38.01,15.68,2.08,1.39,9.35-26.57,36.54-38,35.12l-12.19-1.42c6.28,1.84,9.51-2.75,12.9-4.32Z"/><path class="cls-25" d="M823.99,1278.52c-12.18,14.29-26.39,31.21-35.86,47.33h-1.43c.1-.4-.03-.94,0-1.43.29-5.14-3.35-17.53-5.03-22.94-38.97-125.87-213.95-75.21-224.45,37.28-3.21-12.88.27-30.22,3.57-43.04,22.69-88.11,137.57-115.7,210.57-72.85,21.94,12.88,41.47,32.65,52.63,55.66Z"/><path class="cls-11" d="M786.7,1324.42c-.03.49.1,1.03,0,1.43-.64,2.67-4.68,6.41-6.02,9.04-11.42,22.51-22.86,45.83-25.54,71.28-18-1.88-30.97-12.03-38.51-28.18-5.95-12.75-5.83-28.84-23.87-30.63-18.58-1.84-30.84,10.77-27.88,29.31,3.04,19.05,32.85,34.05,47.24,45.27l-1.43,1.43c-10.54-7.42-31.38-16.65-39.43-24.39-4.25-4.09-14.7-26.74-17.2-26.94-5.22-.42-10.86,12.15-10.48,17.21,1.36,18.38,35.63,35.38,49.14,47.07,18.44,15.94,34.78,37.79,47.81,58.32,3.32,5.23,6.52,18.06,10.31,7.61l11.38,55.41c-17.52,47.47-86.19,60.56-115.16,14.67-8.21-13-16.49-42.58-8.15-56.23.82-1.34,2.76-.78,2.93-.94.36-.35-.12-3.31,2.31-4.12,5.39-1.8,10.72,1.86,14.78,4.97,16.93,12.97,5.56,23.66,11.54,38.66,2.11,5.29,5.98,9.69,10.1,13.56-10.76-4.31-18.4-6.45-18.69-20.86-.23-11.59,4.45-5.95-1.39-19.3-.62-1.42-.12-3.71-1.61-6.24-2.88-4.88-12.22-11.41-17.04-6.67-1.58,1.56-4.38,16.32-4.35,19.29.14,17.84,9.59,37.5,21.61,50.24,4.11,3.17,5.37.68,5.69.75,30.85,6.39,97.08,8.43,86.85-40.24-3.16-15.04-25.55-24.35-39.52-24.29,3.09,2.61,2.41,8.72,2.87,10.03-5.63-10.08-15.93-11.43-24.89-15.98-25.14-12.75-45.69-24.59-66.92-43.52-12.93-11.53-56.59-57.71-55.92-73.88,1.76-42.43,15.36-78.93,51.18-104.43,57.9-41.22,125.92-20.18,168.26,31.29Z"/><path class="cls-1" d="M786.7,1324.42c-42.34-51.47-110.36-72.51-168.26-31.29-35.82,25.5-49.42,62.01-51.18,104.43-2.93-3.07-3.97-8.8-5.03-12.9-4.13-16.05-6.54-29.54-5.01-45.91,10.5-112.5,185.48-163.16,224.45-37.28,1.68,5.41,5.31,17.8,5.03,22.94Z"/><path class="cls-25" d="M710.68,1423.38c9.24,6.51,29.41,23.12,34.32,32.67,1.72,3.35,1.31,8.82,4.4,11.79,1.56,10.39,5.05,24.45,1.43,34.42-3.79,10.45-6.99-2.38-10.31-7.61-13.03-20.54-29.38-42.38-47.81-58.32-13.52-11.69-47.78-28.69-49.14-47.07-.38-5.06,5.26-17.63,10.48-17.21,2.5.2,12.94,22.85,17.2,26.94,8.06,7.74,28.89,16.97,39.43,24.39Z"/><path class="cls-1" d="M664.79,1585.45c-1.23-18.25-15.34-40.55-4.3-57.37,5.85,13.35,1.17,7.71,1.39,19.3.28,14.4,7.93,16.55,18.69,20.86,3.94,1.58,8.78,3.28,12.91,4.3,33.26,8.26,50.31-10.41,28.7-38.72-.79,3.89,1.54,7.89,1.42,11.47-2.76.86-3.29-1.97-4.3-4.3-1.21-2.77-3.46-7.62-4.3-10.04-.45-1.3.22-7.42-2.87-10.03,13.97-.06,36.36,9.24,39.52,24.29,10.23,48.66-56,46.63-86.85,40.24Z"/><path class="cls-25" d="M693.47,1572.54l4.3-1.43c16.42.09,25.29-9.76,25.82-25.82.12-3.59-2.21-7.59-1.42-11.47,21.61,28.31,4.56,46.99-28.7,38.72Z"/><path class="cls-11" d="M719.29,1540.99c1.02,2.33,1.54,5.17,4.3,4.3-.53,16.06-9.4,25.91-25.82,25.82l-5.73-1.42c14.63.05,29.02-13.48,27.24-28.7Z"/><path class="cls-1" d="M712.12,1421.94c10.88,8.48,24.94,20.18,32.9,31.27,5.63,7.85,3.17,6.46,4.39,14.63-3.09-2.98-2.68-8.44-4.4-11.79-4.91-9.55-25.09-26.16-34.32-32.67l1.43-1.43Z"/><path class="cls-25" d="M660.49,1528.08c-11.04,16.82,3.07,39.12,4.3,57.37-.31-.06-1.57,2.43-5.69-.75-12.02-12.74-21.47-32.4-21.61-50.24-.02-2.98,2.77-17.73,4.35-19.29,4.81-4.74,14.16,1.78,17.04,6.67,1.49,2.53.99,4.82,1.61,6.24Z"/><path class="cls-10" d="M1582.7,1259.88c2.34,2.01,7.44,4.67,8.61,5.74.19.17.7,2.25,2.87,4.3,23.37,22.09,45.01,47.3,57.37,77.45,4.34,10.58,8.14,21.38,8.61,32.99,1.36,34.24-25.7,36.69-53.84,34.47-31.05-2.45-58.81-24.38-70.74-52.6-9.37-22.17-7.14-45.49-38.45-46.3-59.74-1.54-27.95,67.19-27.64,99.52.21,23.02-8.25,47.04-36.01,41.71-31.01-5.96-35.08-59.34-46.15-84.36-9.02-20.39-36.85-14.46-39.75,4.07-2.74,17.51,8.08,41.29,8.57,60.09,1.13,43.44-32.96,73.73-75.76,59.98-56.59-18.18-36.45-107.78-39.05-151.7-.63-10.7-4.52-40.88-20.84-23.74-24.96,26.21,20.36,151.23-48.78,152.14-44.78.59-58.52-36.52-54.96-75.16,2.37-25.66,19.84-48.16,16.87-74.61-1.77-15.79-13.12-26.17-27.82-15.22-25.96,19.34-10.66,115.72-36.6,148.42-10.75,13.56-33.82,18.68-41.26-.27-9.59-24.44,2.71-58.82,3.98-84.32.85-17.11-4.67-21.96-15.22-6.63-8.53,12.41-9.75,29.07-18.43,40.38-8.82,11.49-32.99,24.55-45.22,12.16-16.35-16.56-4.7-67.83-5.74-89.63-3.86.26-5.67,3.99-9.03,6.01-19.47,11.66-76.02,25.68-74.85-10.29-21.26,16.99-43.22,45.28-68.3,56.47-16.98,7.58-26.44-1.57-22.79-19.2,2.17-10.52,10.23-26.41,15.78-35.86,9.47-16.12,23.68-33.04,35.86-47.33,1-1.17,2.8-2.59,4.3-4.3,6.17-7.02,10.49-11.9,17.21-18.65,64.56,7.03,128.23,21.02,192.91,27.24,96.5,9.28,193.36,8.02,289.72,2.89,85.24-4.54,170.45-11.52,254.56-25.83ZM858.41,1269.92c-10.42-5.44-41.07,25.48-36.66,31.58,6.24,8.63,31.32-16.31,34.59-22.9,1.42-2.87,2.54-5.33,2.07-8.68ZM886.72,1311.81c-19.57,1.82-14.61,27.49,7.62,20.57,13.02-4.05,6.03-21.84-7.62-20.57ZM1542.12,1324.65c-10.55,2.43-3.96,25.22,8.35,25.69,16.25.63,3.99-28.54-8.35-25.69ZM794.95,1330.45c-10.63,2.67-25.9,33.57-12.99,36.81,14.22,3.58,34.02-42.1,12.99-36.81ZM1146.61,1373.13c4.99-3.08-1.15-30.88-5.02-14.37-1.05,4.49-.88,18,5.02,14.37ZM1565.08,1356.28c-5.76,1.34-7.2,5.87-6.18,11.21,3.31,17.31,46.62,42.53,62.93,34.06,12.93-6.72-5.22-25.06-12-30.4-10.78-8.49-30.91-18.09-44.75-14.87ZM957.39,1358.84c-1.82,1.32-2.85,14.33,2.14,15.74,5.89-2.58,2.24-18.9-2.14-15.74ZM958.32,1381.92c-7.42,2.11-4.63,32.49,6.75,32.65,10.83-4.63,3.72-35.63-6.75-32.65ZM1038.67,1381.92c-6.18,1.58-8.16,21,1.15,20.04,8.45-.87,8.14-22.42-1.15-20.04ZM1256.44,1381.79c-5.37,1.25-5.11,24.31,1.36,22.92,7.84-1.69,5.84-24.59-1.36-22.92ZM1409.88,1383.25c-5.1,3.66-5.2,10.52,0,14.29,4.73-4.21,4.67-10.14,0-14.29ZM1139.04,1384.86c-10.85,3.7-10.94,53.02-.97,57.89,7.86,3.84,10.51-4.62,12.23-10.74,3.12-11.1,3.17-26.01-.31-37.03-1.73-5.48-3.93-12.51-10.95-10.12ZM1420.26,1403.55c-15.68,3.24-6.27,38.18,10.76,41.84,22.1,4.75,10.25-46.18-10.76-41.84ZM1035.72,1411.99c-8.36,2.48-7.99,34.63-2.18,42.07,8.96,11.46,13.01-15.48,12.85-21.36-.14-4.97-3.22-22.92-10.67-20.71ZM1262.45,1415.03c-12.66,2-10.99,25.23-8.98,34.24,7.4,33.14,41.4,50.78,36.63,3.53-1.15-11.37-13.39-40.03-27.65-37.77Z"/><path class="cls-20" d="M878.49,1231.19c8.79.47,20.77,5.88,30.1,7.9,208.17,45.2,424.37,30.5,632.52-6.47,3.63-.45,6.93,1.42,10.04,2.87,9.84,4.59,23.02,17.06,31.55,24.38-84.11,14.31-169.33,21.3-254.56,25.83-96.36,5.13-193.23,6.39-289.72-2.89-64.68-6.22-128.35-20.21-192.91-27.24,4.79-4.8,19.49-20.65,24.38-22.95,3.13-1.47,5.2-1.61,8.61-1.43Z"/><path class="cls-9" d="M1565.08,1356.28c13.85-3.22,33.98,6.39,44.75,14.87,6.78,5.34,24.93,23.68,12,30.4-16.31,8.47-59.62-16.75-62.93-34.06-1.02-5.34.42-9.87,6.18-11.21Z"/><path class="cls-9" d="M1262.45,1415.03c14.26-2.26,26.5,26.4,27.65,37.77,4.76,47.25-29.23,29.61-36.63-3.53-2.01-9.01-3.68-32.24,8.98-34.24Z"/><path class="cls-9" d="M1139.04,1384.86c7.02-2.39,9.22,4.64,10.95,10.12,3.48,11.02,3.44,25.93.31,37.03-1.72,6.11-4.37,14.58-12.23,10.74-9.97-4.87-9.88-54.19.97-57.89Z"/><path class="cls-9" d="M1420.26,1403.55c21.01-4.34,32.86,46.59,10.76,41.84-17.03-3.66-26.44-38.6-10.76-41.84Z"/><path class="cls-9" d="M794.95,1330.45c21.03-5.29,1.22,40.39-12.99,36.81-12.9-3.25,2.37-34.14,12.99-36.81Z"/><path class="cls-9" d="M1035.72,1411.99c7.44-2.21,10.53,15.74,10.67,20.71.17,5.88-3.88,32.82-12.85,21.36-5.81-7.43-6.18-39.58,2.18-42.07Z"/><path class="cls-9" d="M858.41,1269.92c.47,3.35-.65,5.81-2.07,8.68-3.27,6.59-28.35,31.53-34.59,22.9-4.41-6.1,26.24-37.02,36.66-31.58Z"/><path class="cls-9" d="M886.72,1311.81c13.65-1.27,20.64,16.52,7.62,20.57-22.23,6.92-27.19-18.75-7.62-20.57Z"/><path class="cls-9" d="M1542.12,1324.65c12.34-2.85,24.6,26.32,8.35,25.69-12.31-.47-18.89-23.26-8.35-25.69Z"/><path class="cls-9" d="M958.32,1381.92c10.47-2.98,17.58,28.02,6.75,32.65-11.38-.16-14.17-30.53-6.75-32.65Z"/><path class="cls-9" d="M1038.67,1381.92c9.28-2.38,9.59,19.17,1.15,20.04-9.31.96-7.33-18.46-1.15-20.04Z"/><path class="cls-9" d="M1256.44,1381.79c7.2-1.67,9.2,21.23,1.36,22.92-6.47,1.39-6.73-21.68-1.36-22.92Z"/><path class="cls-9" d="M1146.61,1373.13c-5.89,3.63-6.07-9.89-5.02-14.37,3.87-16.51,10.01,11.3,5.02,14.37Z"/><path class="cls-9" d="M957.39,1358.84c4.38-3.16,8.03,13.16,2.14,15.74-4.98-1.41-3.96-14.42-2.14-15.74Z"/><path class="cls-9" d="M1409.88,1383.25c4.67,4.15,4.73,10.08,0,14.29-5.2-3.76-5.1-10.63,0-14.29Z"/><path class="cls-14" d="M869.88,1232.62c-15.9-11-34.18-17.27-46.63-32.97-37.58-47.38,55.37-79.72,87.12-89.32,102.6-31.02,234.68-38.53,341.8-35.54,86.39,2.41,259.5,17.21,329.54,67.74,40.01,28.87,24.27,56.91-11.49,78.34-6.42,3.85-15.41,6.59-21.22,10.33-1.64,1.06,1.92,2.9,2.13,4.3-3.1-1.45-6.41-3.32-10.04-2.87-.88-3.93,2.13-2.64,4.21-3.61,33.33-15.57,83.91-43.21,38.07-80.98-59.78-49.26-239.24-66.53-316.87-68.94-111.74-3.48-312.65,3.11-411.01,56.69-69.13,37.66-29.98,73.57,22.98,95.41-3.4-.18-5.48-.04-8.61,1.43Z"/><path class="cls-11" d="M878.49,1231.19c-52.96-21.83-92.11-57.75-22.98-95.41,98.36-53.58,299.27-60.17,411.01-56.69,77.63,2.42,257.09,19.68,316.87,68.94,45.84,37.77-4.74,65.41-38.07,80.98-2.08.97-5.09-.32-4.21,3.61-208.15,36.97-424.34,51.67-632.52,6.47-9.34-2.03-21.31-7.44-30.1-7.9ZM964.55,1106.42c-5.02-5.19-69.93,16.99-79.86,21.26-10.4,4.46-37.7,17.98-43.58,26.72-4.42,6.57,6.08,11.98,13.02,10.17,8.46-2.21,23.47-17.55,32.93-23.04,20.89-12.13,45.16-16.94,66.98-26.25,2.51-1.07,13.9-5.35,10.5-8.86ZM1172.21,1111.14c-71.84,1.71-155.18,5.3-224.9,21.79-43.06,10.18-88.98,31.25-17.19,53.08,68.88,20.94,159.63,23.01,231.69,25.04,99.73,2.82,218.42,2.28,315.93-19.57,12.9-2.89,80.56-18.25,52.61-40.61-28.51-22.81-141.74-33.09-180.72-35.85-58.17-4.11-118.99-5.29-177.41-3.9ZM1337.44,1236.94c-1.59-2.12-34.28-5.37-39.45-5.74-70.51-5.01-142.95-1.86-213.67-7.2-79.14-5.98-156.3-23.77-232.58-44.34l-6.25,2.08c-2.43,12.86,55.8,38.35,66.67,42.3,96.13,34.96,219.89,32.59,321.31,28.67,26.72-1.03,55.2-1.16,81.51-5.98,2.17-.4,26.38-4.56,22.45-9.8Z"/><path class="cls-25" d="M1337.44,1236.94c3.93,5.24-20.28,9.4-22.45,9.8-26.31,4.82-54.79,4.95-81.51,5.98-101.42,3.91-225.18,6.29-321.31-28.67-10.87-3.95-69.1-29.45-66.67-42.3l6.25-2.08c76.28,20.58,153.44,38.37,232.58,44.34,70.72,5.34,143.16,2.19,213.67,7.2,5.17.37,37.86,3.62,39.45,5.74Z"/><path class="cls-14" d="M1172.21,1111.14c58.42-1.39,119.24-.22,177.41,3.9,38.99,2.76,152.21,13.04,180.72,35.85,27.95,22.36-39.71,37.72-52.61,40.61-97.51,21.84-216.2,22.38-315.93,19.57-72.06-2.04-162.8-4.1-231.69-25.04-71.79-21.83-25.86-42.9,17.19-53.08,69.72-16.49,153.06-20.08,224.9-21.79ZM1066.37,1120.75c-37.72,1.18-124.16,10.76-156.39,27.91-35.09,18.67,12.48,31.95,29.57,36.53,97.85,26.22,247.86,27.08,349.91,23.11,19.29-.75,66.17-1.14,82.41-5.8,41.47-4.21,85.88-7.66,125.87-19.7,12.78-3.85,50.32-14.84,27.5-31.12-21.9-15.63-92.79-24.8-121.11-28.05-103.66-11.86-209.97-9.78-314.07-5.74l-23.68,2.85Z"/><path class="cls-25" d="M964.55,1106.42c3.39,3.51-7.99,7.79-10.5,8.86-21.81,9.31-46.09,14.12-66.98,26.25-9.46,5.49-24.47,20.82-32.93,23.04-6.94,1.82-17.44-3.6-13.02-10.17,5.88-8.74,33.18-22.25,43.58-26.72,9.93-4.26,74.84-26.45,79.86-21.26Z"/><path class="cls-12" d="M1253.03,1876.56c2.02,22.48-31.87,45.31-73.26,43.85-13.76-.48-26.97-4.73-33.19-11.79-9.51-10.81-3.22-24.57,18.65-27.89-4.9,9.15,10.26,15.74,24.78,16.93,28.43,2.34,46.63-9.61,61.96-20.78.3-.22,0-.48,1.06-.33Z"/><path class="cls-8" d="M1258.65,1857.65c-.26.04.03.46.58.38.26-.04-.03-.46-.58-.38Z"/><path class="cls-8" d="M1448.18,1896.63c.05.19.63-.02.52-.42-.05-.19-.63.02-.52.42Z"/><path class="cls-12" d="M1337.43,1883.65c0,8.48.16,17.86,10.05,25.79-.95,0-2.13-.58-2.97-.9-4.32-1.65-8.06-3.71-11.21-6.05l-4.69-3.92c.87,9.37,6.29,23.91,24.94,28.8,13.98,3.66,28.24,2.52,36.86-3.06,2.74-1.78,8.46-6.61,9.5-8.85.14-.31.51-.55-.38-.64-6.98,1.51-15.51,1.7-23.52.5l3.54-.84c19-6.45,28.26-17.81,27.56-31.16-.06-1.08-.31-4.52-.89-5.4-.08-.13-.39-.38-.51-.33-4.87,5.78-12.71,13.49-22.59,16.79-13.65,4.56-34.06-.64-43.62-8.92-.36-.32-1.35-1.99-2.06-1.8Z"/><ellipse class="cls-25" cx="896.96" cy="1873.25" rx="25.16" ry="12.18" transform="translate(-1173.8 1713.41) rotate(-60)"/><ellipse class="cls-25" cx="1480.7" cy="1888.72" rx="12.18" ry="17.81" transform="translate(-451.98 465.87) rotate(-15.54)"/><path class="cls-8" d="M1159.44,1852.32c.26.04-.03.46-.58.38-.26-.04.03-.46.58-.38Z"/><path class="cls-8" d="M969.91,1891.31c-.05.19-.63-.02-.52-.42.05-.19.63.02.52.42Z"/><path class="cls-17" d="M1458.11,1882.01c-2.08,4.45-7.09,8.33-14.31,10.37-6.28,1.78-17.05,1.39-14.4-4.26,1.2-2.55,5.51-6.09,7.54-8.7,13.01-16.74,9.23-33.54-5.74-52.08-.36-.45-.59-1.26-1.52-1.38-.18,5.28.19,10.66-.68,15.86-1.95,11.73-6.36,21.51-28.36,24.05-27.27,3.15-60.82-7.73-62.16-25.24-.76-9.9,6.04-14.5,11.49-22.54.13-.19.68-.54-.26-.53-.76.01-4.02,1.19-4.83,1.5-17.82,6.82-27.79,18.68-29.42,31.01-.23,1.71-1.47,9.21-1.49,10.94-.09,7.16-2.19,13.38-5.68,7.12-.04-.07-2.5-5.83-2.54-5.89-.9-1.63-3.83-33.27-4.96-34.55-.38-.43-4.82,10.79-8.3,19.72-5-13.41-18.56-25.08-37.4-33.73-23.32-10.7-43.6-15.57-49.98-34.4l-1.98-8.14c-2.04,6.87-3.76,14.2-1.08,21.09,3.78,9.68,17.84,16.4,25.03,25.27,14.43,17.78,10.11,45.95-17.95,58.94-7.82,3.62-21.95,4.91-27.18-1.09-6.53-7.49,13.14-12.3,20.02-16.52,8.06-4.94,11.4-11.72,10.33-18.37-.15-.92-.5-2.71-1.78-3.3-2.51,9.51-13.36,16.07-28.67,19.69-16.24,3.84-31.53,4.55-47.08,10.21-4.56,1.66-8.64,3.5-12.28,5.46.92-7.35.24-14.69-3.32-19.11-.24-.3-1.03-1.45-1.66-.73-1.13,1.28-2.28,4.85-3.18,6.48-3.77,6.8-8.6,13.83-17.74,19.44,3.51-9.29,5.3-18.68,4.1-27.75-1.63-12.33-9.69-30.3-27.5-37.12-.81-.31-4.07-1.48-4.83-1.5-.94-.02-.39.34-.26.53,5.45,8.04,12.25,12.64,11.49,22.54-1.34,17.51-34.89,28.39-62.16,25.24-22-2.54-26.41-12.32-28.36-24.05-.86-5.2-.5-10.58-.68-15.86-.93.12-1.16.93-1.52,1.38-14.97,18.54-18.75,35.34-5.74,52.08,2.03,2.61,6.34,6.15,7.54,8.7,2.66,5.65-8.12,6.04-14.4,4.26-7.22-2.04-12.23-5.92-14.31-10.37-5.37,11.92,2.74,24.05,12.98,33.03,24.4,21.39,68.15,29.06,113.25,8.11,6.65-3.09,11.87-6.26,16.13-9.63,5.26,12.54,23.19,23.27,53.12,26.22,20.25,1.99,43.4.5,64.4-3.85,6.49,2.08,96.12-14.8,112.02-7.42,45.1,20.95,88.85,13.28,113.25-8.11,10.24-8.97,18.34-21.1,12.98-33.03ZM1064.53,1922.04c-13.98,3.66-28.24,2.52-36.86-3.06-2.74-1.78-8.46-6.61-9.5-8.85-.14-.31-.51-.55.38-.64,6.98,1.51,15.51,1.7,23.52.5l-3.54-.84c-19-6.45-28.26-17.81-27.56-31.16.06-1.08.31-4.52.89-5.4.08-.13.39-.38.51-.33,4.87,5.78,12.71,13.49,22.59,16.79,13.65,4.56,34.06-.64,43.62-8.92.36-.32,1.35-1.99,2.06-1.8,0,8.48-.16,17.86-10.05,25.79.95,0,2.13-.58,2.97-.9,4.32-1.65,8.06-3.71,11.21-6.05l4.69-3.92c-.87,9.37-6.29,23.91-24.94,28.8ZM1179.78,1920.42c-13.76-.48-26.97-4.73-33.19-11.79-9.51-10.81-3.22-24.57,18.65-27.89-4.9,9.15,10.26,15.74,24.78,16.93,28.43,2.34,46.63-9.61,61.96-20.78.3-.22,0-.48,1.06-.33,2.02,22.48-31.87,45.31-73.26,43.85ZM1399.53,1914.81c.89.09.53.33.38.64-1.04,2.24-6.76,7.08-9.5,8.85-8.62,5.58-22.88,6.72-36.86,3.06-18.65-4.89-24.07-19.43-24.94-28.8l4.69,3.92c3.15,2.33,6.9,4.39,11.21,6.05.84.32,2.02.91,2.97.9-9.9-7.93-10.06-17.31-10.05-25.79.71-.19,1.69,1.49,2.06,1.8,9.56,8.28,29.97,13.48,43.62,8.92,9.88-3.3,17.73-11.01,22.59-16.79.12-.04.43.21.51.33.58.88.83,4.32.89,5.4.7,13.35-8.55,24.71-27.56,31.16l-3.54.84c8.01,1.21,16.54,1.01,23.52-.5Z"/><path class="cls-12" d="M1080.66,1878.32c0,8.48-.16,17.86-10.05,25.79.95,0,2.13-.58,2.97-.9,4.32-1.65,8.06-3.71,11.21-6.05l4.69-3.92c-.87,9.37-6.29,23.91-24.94,28.8-13.98,3.66-28.24,2.52-36.86-3.06-2.74-1.78-8.46-6.61-9.5-8.85-.14-.31-.51-.55.38-.64,6.98,1.51,15.51,1.7,23.52.5l-3.54-.84c-19-6.45-28.26-17.81-27.56-31.16.06-1.08.31-4.52.89-5.4.08-.13.39-.38.51-.33,4.87,5.78,12.71,13.49,22.59,16.79,13.65,4.56,34.06-.64,43.62-8.92.36-.32,1.35-1.99,2.06-1.8Z"/></svg>